G04 EasyPC Gerber Version 21.0.3 Build 4286 *
G04 #@! TF.Part,Single*
G04 #@! TF.FileFunction,Soldermask,Top *
G04 #@! TF.FilePolarity,Negative *
%FSLAX35Y35*%
%MOIN*%
G04 #@! TA.AperFunction,SMDPad*
%ADD83R,0.03159X0.03946*%
%ADD85R,0.05324X0.05718*%
%ADD81R,0.06100X0.06600*%
G04 #@! TA.AperFunction,ComponentPad*
%ADD82R,0.06600X0.06600*%
%ADD79C,0.08474*%
%ADD80C,0.11230*%
%ADD84C,0.12411*%
G04 #@! TA.AperFunction,WasherPad*
%ADD78C,0.17135*%
X0Y0D02*
D02*
D78*
X298281Y365407D03*
X463636D03*
D02*
D79*
X99463Y217376D03*
Y252809D03*
X158518Y158321D03*
Y193754D03*
Y276431D03*
Y311864D03*
X217573Y217376D03*
Y252809D03*
X298439Y319344D03*
X308439D03*
X318439D03*
X328439D03*
X338439D03*
Y399344D03*
X348439Y319344D03*
Y399344D03*
X358439Y319344D03*
Y399344D03*
X368439Y319344D03*
Y399344D03*
X378439Y319344D03*
Y399344D03*
X388439Y319344D03*
Y399344D03*
X398439Y319344D03*
Y399344D03*
X408439Y319344D03*
Y399344D03*
X418439Y319344D03*
Y399344D03*
X428439Y319344D03*
Y399344D03*
X438439Y319344D03*
Y399344D03*
X448439Y319344D03*
Y399344D03*
X536470Y217376D03*
Y252809D03*
X595526Y158321D03*
Y193754D03*
Y276431D03*
Y311864D03*
X654581Y217376D03*
Y252809D03*
D02*
D80*
X74856Y225250D03*
Y244935D03*
X124069Y225250D03*
Y244935D03*
X133911Y166195D03*
Y185880D03*
Y284305D03*
Y303990D03*
X183124Y166195D03*
Y185880D03*
Y284305D03*
Y303990D03*
X192967Y225250D03*
Y244935D03*
X242179Y225250D03*
Y244935D03*
X511864Y225250D03*
Y244935D03*
X561077Y225250D03*
Y244935D03*
X570919Y166195D03*
Y185880D03*
Y284305D03*
Y303990D03*
X620132Y166195D03*
Y185880D03*
Y284305D03*
Y303990D03*
X629974Y225250D03*
Y244935D03*
X679187Y225250D03*
Y244935D03*
D02*
D81*
X91982Y191222D03*
Y200222D03*
X107337Y191222D03*
Y200222D03*
X150250Y332167D03*
Y341167D03*
X151431Y128230D03*
Y137230D03*
X165998Y332167D03*
Y341167D03*
X167179Y128230D03*
Y137230D03*
X209699Y191222D03*
Y200222D03*
X225447Y191222D03*
Y200222D03*
X279384Y163663D03*
Y172663D03*
X295132Y163663D03*
Y172663D03*
X305368Y266813D03*
Y275813D03*
Y287285D03*
Y296285D03*
X460486Y163663D03*
Y172663D03*
X476234Y163663D03*
Y172663D03*
X528596Y190435D03*
Y199435D03*
X544344Y190435D03*
Y199435D03*
X587652Y132167D03*
Y141167D03*
Y332955D03*
Y341955D03*
X603400Y132167D03*
Y141167D03*
Y332955D03*
Y341955D03*
X647888Y189648D03*
Y198648D03*
X661274Y189648D03*
Y198648D03*
D02*
D82*
X149463Y405959D03*
X159463D03*
X169463D03*
X215841D03*
X225841D03*
X500644Y404384D03*
X510644D03*
X520644D03*
X582533D03*
X592533D03*
D02*
D83*
X360309Y208616D03*
Y230073D03*
X365309Y208616D03*
Y230073D03*
X370309Y208616D03*
Y230073D03*
X375309Y208616D03*
Y230073D03*
X380309Y208616D03*
Y230073D03*
X385309Y208616D03*
Y230073D03*
X390309Y208616D03*
Y230073D03*
X395309Y208616D03*
Y230073D03*
D02*
D84*
X316982Y168163D03*
X342573D03*
X411470D03*
X437061D03*
D02*
D85*
X317967Y270329D03*
Y286470D03*
X330565Y270329D03*
Y286470D03*
X352612Y270329D03*
Y286470D03*
X365211Y270329D03*
Y286470D03*
X387258Y270329D03*
Y286470D03*
X399856Y270329D03*
Y286470D03*
X421904Y270329D03*
Y286470D03*
X434502Y270329D03*
Y286470D03*
X0Y0D02*
M02*
