G04 EasyPC Gerber Version 21.0.3 Build 4286 *
G04 #@! TF.Part,Single*
G04 #@! TF.FileFunction,Legend,Top *
G04 #@! TF.FilePolarity,Positive *
%FSLAX35Y35*%
%MOIN*%
%ADD23C,0.00197*%
%ADD18C,0.00394*%
%ADD16C,0.00500*%
%ADD19C,0.00787*%
%ADD71C,0.01000*%
%ADD21C,0.01063*%
%ADD22C,0.01181*%
%ADD70C,0.01200*%
X0Y0D02*
D02*
D16*
X74861Y252750D02*
X124221D01*
Y217435*
X74861*
Y252750*
X76111Y265868D02*
X76424Y265243D01*
X77048Y264930*
X78298*
X78924Y265243*
X79236Y265868*
X78924Y266493*
X78298Y266806*
X77048*
X76424Y267118*
X76111Y267743*
X76424Y268368*
X77048Y268680*
X78298*
X78924Y268368*
X79236Y267743*
X81111Y268680D02*
X81424Y264930D01*
X82674Y266806*
X83924Y264930*
X84236Y268680*
X86736Y264930D02*
X87986D01*
X87361D02*
Y268680D01*
X86736Y268056*
X86982Y182160D02*
Y185910D01*
X89170*
X89795Y185598*
X90107Y184972*
X89795Y184348*
X89170Y184035*
X86982*
X89170D02*
X90107Y182160D01*
X94482D02*
X91982D01*
X94170Y184348*
X94482Y184972*
X94170Y185598*
X93545Y185910*
X92607*
X91982Y185598*
X88482Y203722D02*
Y187722D01*
X95482*
Y203722*
X88482*
X105462Y182785D02*
X105149Y182472D01*
X104524Y182160*
X103587*
X102962Y182472*
X102649Y182785*
X102337Y183410*
Y184660*
X102649Y185285*
X102962Y185598*
X103587Y185910*
X104524*
X105149Y185598*
X105462Y185285*
X107962Y182160D02*
X109212D01*
X108587D02*
Y185910D01*
X107962Y185285*
X103837Y203722D02*
Y187722D01*
X110837*
Y203722*
X103837*
X127022Y319645D02*
X127334Y319020D01*
X127959Y318707*
X129209*
X129834Y319020*
X130147Y319645*
X129834Y320270*
X129209Y320582*
X127959*
X127334Y320895*
X127022Y321520*
X127334Y322145*
X127959Y322457*
X129209*
X129834Y322145*
X130147Y321520*
X132022Y322457D02*
X132334Y318707D01*
X133584Y320582*
X134834Y318707*
X135147Y322457*
X139522Y318707D02*
X137022D01*
X139209Y320895*
X139522Y321520*
X139209Y322145*
X138584Y322457*
X137647*
X137022Y322145*
X133917Y193695D02*
X183276D01*
Y158380*
X133917*
Y193695*
Y311805D02*
X183276D01*
Y276490*
X133917*
Y311805*
X135166Y206813D02*
X135479Y206188D01*
X136104Y205875*
X137354*
X137979Y206188*
X138291Y206813*
X137979Y207438*
X137354Y207750*
X136104*
X135479Y208063*
X135166Y208688*
X135479Y209313*
X136104Y209625*
X137354*
X137979Y209313*
X138291Y208688*
X140166Y209625D02*
X140479Y205875D01*
X141729Y207750*
X142979Y205875*
X143291Y209625*
X146729Y205875D02*
Y209625D01*
X145166Y207125*
X147666*
X149438Y346891D02*
X149126Y346579D01*
X148500Y346266*
X147563*
X146938Y346579*
X146626Y346891*
X146313Y347516*
Y348766*
X146626Y349391*
X146938Y349704*
X147563Y350016*
X148500*
X149126Y349704*
X149438Y349391*
X153813Y346266D02*
X151313D01*
X153500Y348454*
X153813Y349079*
X153500Y349704*
X152876Y350016*
X151938*
X151313Y349704*
X149556Y119793D02*
X149244Y119480D01*
X148619Y119168*
X147681*
X147056Y119480*
X146744Y119793*
X146431Y120418*
Y121668*
X146744Y122293*
X147056Y122606*
X147681Y122918*
X148619*
X149244Y122606*
X149556Y122293*
X152994Y119168D02*
Y122918D01*
X151431Y120418*
X153931*
X147931Y140730D02*
Y124730D01*
X154931*
Y140730*
X147931*
X153750Y328667D02*
Y344667D01*
X146750*
Y328667*
X153750*
X159699Y239780D02*
Y236968D01*
X160011Y236343*
X160636Y236030*
X161886*
X162511Y236343*
X162824Y236968*
Y239780*
X167199Y236030D02*
X164699D01*
X166886Y238218*
X167199Y238843*
X166886Y239468*
X166261Y239780*
X165324*
X164699Y239468*
X162179Y119168D02*
Y122918D01*
X164367*
X164992Y122606*
X165304Y121980*
X164992Y121356*
X164367Y121043*
X162179*
X164367D02*
X165304Y119168D01*
X168117Y121043D02*
X168742D01*
X169367Y121356*
X169679Y121980*
X169367Y122606*
X168742Y122918*
X168117*
X167492Y122606*
X167179Y121980*
X167492Y121356*
X168117Y121043*
X167492Y120730*
X167179Y120106*
X167492Y119480*
X168117Y119168*
X168742*
X169367Y119480*
X169679Y120106*
X169367Y120730*
X168742Y121043*
X162848Y346266D02*
Y350016D01*
X165036*
X165661Y349704*
X165974Y349079*
X165661Y348454*
X165036Y348141*
X162848*
X165036D02*
X165974Y346266D01*
X169411D02*
Y350016D01*
X167848Y347516*
X170348*
X163679Y140730D02*
Y124730D01*
X170679*
Y140730*
X163679*
X169498Y328667D02*
Y344667D01*
X162498*
Y328667*
X169498*
X181025Y398459D02*
X177275D01*
Y400646*
X177587Y401271*
X178213Y401584*
X178837Y401271*
X179150Y400646*
Y398459*
X177275Y403459D02*
X181025D01*
Y406584*
X180087Y408459D02*
X179463Y408771D01*
X179150Y409396*
Y410021*
X179463Y410646*
X180087Y410959*
X180713Y410646*
X181025Y410021*
Y409396*
X180713Y408771*
X180087Y408459*
X179150*
X178213Y408771*
X177587Y409396*
X177275Y410021*
X192972Y252750D02*
X242331D01*
Y217435*
X192972*
Y252750*
X194221Y265868D02*
X194534Y265243D01*
X195159Y264930*
X196409*
X197034Y265243*
X197346Y265868*
X197034Y266493*
X196409Y266806*
X195159*
X194534Y267118*
X194221Y267743*
X194534Y268368*
X195159Y268680*
X196409*
X197034Y268368*
X197346Y267743*
X199221Y268680D02*
X199534Y264930D01*
X200784Y266806*
X202034Y264930*
X202346Y268680*
X204534Y265243D02*
X205159Y264930D01*
X205784*
X206409Y265243*
X206721Y265868*
X206409Y266493*
X205784Y266806*
X205159*
X205784D02*
X206409Y267118D01*
X206721Y267743*
X206409Y268368*
X205784Y268680*
X205159*
X204534Y268368*
X204278Y413459D02*
X208028D01*
Y411271*
X207716Y410646*
X207091Y410333*
X206466Y410646*
X206153Y411271*
Y413459*
X208028Y408459D02*
X204278D01*
Y405333*
Y403459D02*
X208028Y400959D01*
Y403459*
X207824Y182785D02*
X207511Y182472D01*
X206886Y182160*
X205949*
X205324Y182472*
X205011Y182785*
X204699Y183410*
Y184660*
X205011Y185285*
X205324Y185598*
X205949Y185910*
X206886*
X207511Y185598*
X207824Y185285*
X210011Y182472D02*
X210636Y182160D01*
X211261*
X211886Y182472*
X212199Y183098*
X211886Y183722*
X211261Y184035*
X210636*
X211261D02*
X211886Y184348D01*
X212199Y184972*
X211886Y185598*
X211261Y185910*
X210636*
X210011Y185598*
X206199Y203722D02*
Y187722D01*
X213199*
Y203722*
X206199*
X220447Y182160D02*
Y185910D01*
X222634*
X223259Y185598*
X223572Y184972*
X223259Y184348*
X222634Y184035*
X220447*
X222634D02*
X223572Y182160D01*
X225447Y183098D02*
X225759Y183722D01*
X226384Y184035*
X227009*
X227634Y183722*
X227947Y183098*
X227634Y182472*
X227009Y182160*
X226384*
X225759Y182472*
X225447Y183098*
Y184035*
X225759Y184972*
X226384Y185598*
X227009Y185910*
X221947Y203722D02*
Y187722D01*
X228947*
Y203722*
X221947*
X278572Y179175D02*
X278259Y178862D01*
X277634Y178550*
X276697*
X276072Y178862*
X275759Y179175*
X275447Y179800*
Y181050*
X275759Y181675*
X276072Y181987*
X276697Y182300*
X277634*
X278259Y181987*
X278572Y181675*
X281384Y178550D02*
X282009Y178862D01*
X282634Y179487*
X282947Y180425*
Y181362*
X282634Y181987*
X282009Y182300*
X281384*
X280759Y181987*
X280447Y181362*
X280759Y180737*
X281384Y180425*
X282009*
X282634Y180737*
X282947Y181362*
X282884Y160163D02*
Y176163D01*
X275884*
Y160163*
X282884*
X289620Y178550D02*
Y182300D01*
X291807*
X292433Y181987*
X292745Y181362*
X292433Y180737*
X291807Y180425*
X289620*
X291807D02*
X292745Y178550D01*
X295245D02*
X296495D01*
X295870D02*
Y182300D01*
X295245Y181675*
X300245Y178550D02*
X301495D01*
X300870D02*
Y182300D01*
X300245Y181675*
X298632Y160163D02*
Y176163D01*
X291632*
Y160163*
X298632*
X301800Y257718D02*
X301488Y257406D01*
X300863Y257093*
X299925*
X299300Y257406*
X298988Y257718*
X298675Y258343*
Y259593*
X298988Y260218*
X299300Y260531*
X299925Y260843*
X300863*
X301488Y260531*
X301800Y260218*
X304300Y257093D02*
X305550D01*
X304925D02*
Y260843D01*
X304300Y260218*
X309300Y257093D02*
X310550D01*
X309925D02*
Y260843D01*
X309300Y260218*
X300250Y301581D02*
Y305331D01*
X302437*
X303063Y305019*
X303375Y304394*
X303063Y303769*
X302437Y303456*
X300250*
X302437D02*
X303375Y301581D01*
X305875D02*
X307125D01*
X306500D02*
Y305331D01*
X305875Y304706*
X310250Y301581D02*
X312750Y305331D01*
X310250*
X308868Y263313D02*
Y279313D01*
X301868*
Y263313*
X308868*
Y283785D02*
Y299785D01*
X301868*
Y283785*
X308868*
X314620Y290014D02*
X333911D01*
Y266785*
X314620*
Y276923*
X316096*
Y279876*
X314620*
Y290014*
X316392Y262615D02*
Y258865D01*
X319517*
X321392D02*
Y262615D01*
X324517*
X323892Y260740D02*
X321392D01*
Y258865D02*
X324517D01*
X326392D02*
Y262615D01*
X328267*
X328892Y262302*
X329204Y261990*
X329517Y261365*
Y260115*
X329204Y259490*
X328892Y259177*
X328267Y258865*
X326392*
X332017D02*
X333267D01*
X332642D02*
Y262615D01*
X332017Y261990*
X322691Y180275D02*
X323004Y179650D01*
X323628Y179337*
X324878*
X325504Y179650*
X325816Y180275*
X325504Y180900*
X324878Y181212*
X323628*
X323004Y181525*
X322691Y182150*
X323004Y182775*
X323628Y183087*
X324878*
X325504Y182775*
X325816Y182150*
X327691Y183087D02*
X328004Y179337D01*
X329254Y181212*
X330504Y179337*
X330816Y183087*
X333628Y179337D02*
X334254Y179650D01*
X334878Y180275*
X335191Y181212*
Y182150*
X334878Y182775*
X334254Y183087*
X333628*
X333004Y182775*
X332691Y182150*
X333004Y181525*
X333628Y181212*
X334254*
X334878Y181525*
X335191Y182150*
X349266Y290014D02*
X368557D01*
Y266785*
X349266*
Y276923*
X350742*
Y279876*
X349266*
Y290014*
X350250Y262615D02*
Y258865D01*
X353375*
X355250D02*
Y262615D01*
X358375*
X357750Y260740D02*
X355250D01*
Y258865D02*
X358375D01*
X360250D02*
Y262615D01*
X362125*
X362750Y262302*
X363063Y261990*
X363375Y261365*
Y260115*
X363063Y259490*
X362750Y259177*
X362125Y258865*
X360250*
X367750D02*
X365250D01*
X367437Y261052*
X367750Y261677*
X367437Y262302*
X366813Y262615*
X365875*
X365250Y262302*
X357998Y237152D02*
X359248D01*
X358624D02*
Y240902D01*
X357998D02*
X359248D01*
X365186Y237777D02*
X364874Y237465D01*
X364248Y237152*
X363311*
X362686Y237465*
X362374Y237777*
X362061Y238402*
Y239652*
X362374Y240277*
X362686Y240590*
X363311Y240902*
X364248*
X364874Y240590*
X365186Y240277*
X367686Y237152D02*
X368936D01*
X368311D02*
Y240902D01*
X367686Y240277*
X358045Y232730D02*
X397573D01*
Y205959*
X358045*
Y217868*
X359522*
Y220821*
X358045*
Y232730*
X373439Y362989D02*
Y360176D01*
X373752Y359551*
X374376Y359239*
X375626*
X376252Y359551*
X376564Y360176*
Y362989*
X379064Y359239D02*
X380314D01*
X379689D02*
Y362989D01*
X379064Y362364*
X383911Y290014D02*
X403203D01*
Y266785*
X383911*
Y276923*
X385388*
Y279876*
X383911*
Y290014*
X384896Y263402D02*
Y259652D01*
X388021*
X389896D02*
Y263402D01*
X393021*
X392396Y261527D02*
X389896D01*
Y259652D02*
X393021D01*
X394896D02*
Y263402D01*
X396771*
X397396Y263090*
X397708Y262777*
X398021Y262152*
Y260902*
X397708Y260277*
X397396Y259965*
X396771Y259652*
X394896*
X400208Y259965D02*
X400833Y259652D01*
X401458*
X402083Y259965*
X402396Y260590*
X402083Y261215*
X401458Y261527*
X400833*
X401458D02*
X402083Y261840D01*
X402396Y262465*
X402083Y263090*
X401458Y263402*
X400833*
X400208Y263090*
X414030Y180275D02*
X414342Y179650D01*
X414967Y179337*
X416217*
X416842Y179650*
X417155Y180275*
X416842Y180900*
X416217Y181212*
X414967*
X414342Y181525*
X414030Y182150*
X414342Y182775*
X414967Y183087*
X416217*
X416842Y182775*
X417155Y182150*
X419030Y183087D02*
X419342Y179337D01*
X420592Y181212*
X421842Y179337*
X422155Y183087*
X424655Y179337D02*
X425905D01*
X425280D02*
Y183087D01*
X424655Y182462*
X429342Y179650D02*
X429967Y179337D01*
X430592*
X431217Y179650*
X431530Y180275*
Y182150*
X431217Y182775*
X430592Y183087*
X429967*
X429342Y182775*
X429030Y182150*
Y180275*
X429342Y179650*
X431217Y182775*
X418557Y290014D02*
X437848D01*
Y266785*
X418557*
Y276923*
X420033*
Y279876*
X418557*
Y290014*
X419541Y263402D02*
Y259652D01*
X422667*
X424541D02*
Y263402D01*
X427667*
X427041Y261527D02*
X424541D01*
Y259652D02*
X427667D01*
X429541D02*
Y263402D01*
X431417*
X432041Y263090*
X432354Y262777*
X432667Y262152*
Y260902*
X432354Y260277*
X432041Y259965*
X431417Y259652*
X429541*
X436104D02*
Y263402D01*
X434541Y260902*
X437041*
X456525Y179175D02*
X456212Y178862D01*
X455587Y178550*
X454650*
X454025Y178862*
X453712Y179175*
X453400Y179800*
Y181050*
X453712Y181675*
X454025Y181987*
X454650Y182300*
X455587*
X456212Y181987*
X456525Y181675*
X459025Y178550D02*
X460275D01*
X459650D02*
Y182300D01*
X459025Y181675*
X463712Y178862D02*
X464337Y178550D01*
X464962*
X465587Y178862*
X465900Y179487*
Y181362*
X465587Y181987*
X464962Y182300*
X464337*
X463712Y181987*
X463400Y181362*
Y179487*
X463712Y178862*
X465587Y181987*
X463986Y160163D02*
Y176163D01*
X456986*
Y160163*
X463986*
X469935Y178550D02*
Y182300D01*
X472122*
X472748Y181987*
X473060Y181362*
X472748Y180737*
X472122Y180425*
X469935*
X472122D02*
X473060Y178550D01*
X475560D02*
X476810D01*
X476185D02*
Y182300D01*
X475560Y181675*
X480248Y178862D02*
X480872Y178550D01*
X481498*
X482122Y178862*
X482435Y179487*
X482122Y180112*
X481498Y180425*
X480872*
X481498D02*
X482122Y180737D01*
X482435Y181362*
X482122Y181987*
X481498Y182300*
X480872*
X480248Y181987*
X479734Y160163D02*
Y176163D01*
X472734*
Y160163*
X479734*
X511869Y252750D02*
X561229D01*
Y217435*
X511869*
Y252750*
X513119Y265868D02*
X513431Y265243D01*
X514056Y264930*
X515306*
X515931Y265243*
X516244Y265868*
X515931Y266493*
X515306Y266806*
X514056*
X513431Y267118*
X513119Y267743*
X513431Y268368*
X514056Y268680*
X515306*
X515931Y268368*
X516244Y267743*
X518119Y268680D02*
X518431Y264930D01*
X519681Y266806*
X520931Y264930*
X521244Y268680*
X523119Y265868D02*
X523431Y266493D01*
X524056Y266806*
X524681*
X525306Y266493*
X525619Y265868*
X525306Y265243*
X524681Y264930*
X524056*
X523431Y265243*
X523119Y265868*
Y266806*
X523431Y267743*
X524056Y268368*
X524681Y268680*
X526722Y181998D02*
X526409Y181685D01*
X525784Y181372*
X524846*
X524222Y181685*
X523909Y181998*
X523596Y182622*
Y183872*
X523909Y184498*
X524222Y184810*
X524846Y185122*
X525784*
X526409Y184810*
X526722Y184498*
X528596Y182310D02*
X528909Y182935D01*
X529534Y183248*
X530159*
X530784Y182935*
X531096Y182310*
X530784Y181685*
X530159Y181372*
X529534*
X528909Y181685*
X528596Y182310*
Y183248*
X528909Y184185*
X529534Y184810*
X530159Y185122*
X525096Y202935D02*
Y186935D01*
X532096*
Y202935*
X525096*
X532206Y396884D02*
X528456D01*
Y399071*
X528769Y399696*
X529394Y400009*
X530019Y399696*
X530331Y399071*
Y396884*
X528456Y401884D02*
X532206D01*
Y405009*
X531894Y406884D02*
X532206Y407509D01*
Y408446*
X531894Y409071*
X531269Y409384*
X530956*
X530331Y409071*
X530019Y408446*
Y406884*
X528456*
Y409384*
X539344Y181372D02*
Y185122D01*
X541532*
X542157Y184810*
X542470Y184185*
X542157Y183560*
X541532Y183248*
X539344*
X541532D02*
X542470Y181372D01*
X544970D02*
X546220D01*
X545594D02*
Y185122D01*
X544970Y184498*
X551844Y181372D02*
X549344D01*
X551532Y183560*
X551844Y184185*
X551532Y184810*
X550907Y185122*
X549970*
X549344Y184810*
X540844Y202935D02*
Y186935D01*
X547844*
Y202935*
X540844*
X562455Y320432D02*
X562767Y319807D01*
X563392Y319494*
X564642*
X565267Y319807*
X565580Y320432*
X565267Y321057*
X564642Y321370*
X563392*
X562767Y321682*
X562455Y322307*
X562767Y322932*
X563392Y323244*
X564642*
X565267Y322932*
X565580Y322307*
X567455Y323244D02*
X567767Y319494D01*
X569017Y321370*
X570267Y319494*
X570580Y323244*
X572455Y319494D02*
X574955Y323244D01*
X572455*
X570924Y193695D02*
X620284D01*
Y158380*
X570924*
Y193695*
Y311805D02*
X620284D01*
Y276490*
X570924*
Y311805*
X572174Y206813D02*
X572487Y206188D01*
X573111Y205875*
X574361*
X574987Y206188*
X575299Y206813*
X574987Y207438*
X574361Y207750*
X573111*
X572487Y208063*
X572174Y208688*
X572487Y209313*
X573111Y209625*
X574361*
X574987Y209313*
X575299Y208688*
X577174Y209625D02*
X577487Y205875D01*
X578737Y207750*
X579987Y205875*
X580299Y209625*
X582174Y206188D02*
X582799Y205875D01*
X583737*
X584361Y206188*
X584674Y206813*
Y207125*
X584361Y207750*
X583737Y208063*
X582174*
Y209625*
X584674*
X585777Y123730D02*
X585464Y123417D01*
X584839Y123105*
X583902*
X583277Y123417*
X582964Y123730*
X582652Y124355*
Y125605*
X582964Y126230*
X583277Y126543*
X583902Y126855*
X584839*
X585464Y126543*
X585777Y126230*
X587652Y123417D02*
X588277Y123105D01*
X589214*
X589839Y123417*
X590152Y124043*
Y124355*
X589839Y124980*
X589214Y125293*
X587652*
Y126855*
X590152*
X587233Y348466D02*
X586921Y348154D01*
X586296Y347841*
X585358*
X584733Y348154*
X584421Y348466*
X584108Y349091*
Y350341*
X584421Y350966*
X584733Y351279*
X585358Y351591*
X586296*
X586921Y351279*
X587233Y350966*
X589108Y347841D02*
X591608Y351591D01*
X589108*
X584152Y144667D02*
Y128667D01*
X591152*
Y144667*
X584152*
X591152Y329455D02*
Y345455D01*
X584152*
Y329455*
X591152*
X595919Y238205D02*
Y235393D01*
X596232Y234768*
X596857Y234455*
X598107*
X598732Y234768*
X599044Y235393*
Y238205*
X602482Y234455D02*
Y238205D01*
X600919Y235705*
X603419*
X596707Y347841D02*
Y351591D01*
X598894*
X599519Y351279*
X599832Y350654*
X599519Y350029*
X598894Y349716*
X596707*
X598894D02*
X599832Y347841D01*
X602332D02*
X603582D01*
X602957D02*
Y351591D01*
X602332Y350966*
X608269Y347841D02*
Y351591D01*
X606707Y349091*
X609207*
X598400Y123105D02*
Y126855D01*
X600587*
X601212Y126543*
X601525Y125917*
X601212Y125293*
X600587Y124980*
X598400*
X600587D02*
X601525Y123105D01*
X604025D02*
X605275D01*
X604650D02*
Y126855D01*
X604025Y126230*
X608712Y123417D02*
X609337Y123105D01*
X609962*
X610587Y123417*
X610900Y124043*
Y125917*
X610587Y126543*
X609962Y126855*
X609337*
X608712Y126543*
X608400Y125917*
Y124043*
X608712Y123417*
X610587Y126543*
X599900Y144667D02*
Y128667D01*
X606900*
Y144667*
X599900*
X604096Y396884D02*
X600346D01*
Y399071*
X600658Y399696*
X601283Y400009*
X601908Y399696*
X602221Y399071*
Y396884*
X600346Y401884D02*
X604096D01*
Y405009*
Y407509D02*
Y408759D01*
Y408134D02*
X600346D01*
X600971Y407509*
X606900Y329455D02*
Y345455D01*
X599900*
Y329455*
X606900*
X629980Y252750D02*
X679339D01*
Y217435*
X629980*
Y252750*
X631229Y265868D02*
X631542Y265243D01*
X632167Y264930*
X633417*
X634042Y265243*
X634354Y265868*
X634042Y266493*
X633417Y266806*
X632167*
X631542Y267118*
X631229Y267743*
X631542Y268368*
X632167Y268680*
X633417*
X634042Y268368*
X634354Y267743*
X636229Y268680D02*
X636542Y264930D01*
X637792Y266806*
X639042Y264930*
X639354Y268680*
X642167Y266806D02*
X642792D01*
X643417Y267118*
X643729Y267743*
X643417Y268368*
X642792Y268680*
X642167*
X641542Y268368*
X641229Y267743*
X641542Y267118*
X642167Y266806*
X641542Y266493*
X641229Y265868*
X641542Y265243*
X642167Y264930*
X642792*
X643417Y265243*
X643729Y265868*
X643417Y266493*
X642792Y266806*
X646013Y181210D02*
X645700Y180898D01*
X645075Y180585*
X644138*
X643513Y180898*
X643200Y181210*
X642888Y181835*
Y183085*
X643200Y183710*
X643513Y184023*
X644138Y184335*
X645075*
X645700Y184023*
X646013Y183710*
X648825Y182460D02*
X649450D01*
X650075Y182773*
X650388Y183398*
X650075Y184023*
X649450Y184335*
X648825*
X648200Y184023*
X647888Y183398*
X648200Y182773*
X648825Y182460*
X648200Y182148*
X647888Y181523*
X648200Y180898*
X648825Y180585*
X649450*
X650075Y180898*
X650388Y181523*
X650075Y182148*
X649450Y182460*
X644388Y202148D02*
Y186148D01*
X651388*
Y202148*
X644388*
X656274Y203420D02*
Y207170D01*
X658461*
X659086Y206857*
X659399Y206232*
X659086Y205607*
X658461Y205295*
X656274*
X658461D02*
X659399Y203420D01*
X661899D02*
X663149D01*
X662524D02*
Y207170D01*
X661899Y206545*
X666274Y204357D02*
X666586Y204982D01*
X667211Y205295*
X667836*
X668461Y204982*
X668774Y204357*
X668461Y203732*
X667836Y203420*
X667211*
X666586Y203732*
X666274Y204357*
Y205295*
X666586Y206232*
X667211Y206857*
X667836Y207170*
X657774Y202148D02*
Y186148D01*
X664774*
Y202148*
X657774*
D02*
D18*
X273439Y404344D02*
X473439D01*
Y314344*
X273439*
Y404344*
D02*
D19*
X298281Y312652D02*
X299069*
X299056Y312550D01*
X299016Y312455*
X298954Y312373*
X298872Y312311*
X298777Y312271*
X298675Y312258*
X298573Y312271*
X298478Y312311*
X298397Y312373*
X298334Y312455*
X298295Y312550*
X298281Y312652*
X299069D02*
X299056Y312754D01*
X299016Y312848*
X298954Y312930*
X298872Y312993*
X298777Y313032*
X298675Y313045*
X298573Y313032*
X298478Y312993*
X298397Y312930*
X298334Y312848*
X298295Y312754*
X298281Y312652*
D02*
D70*
X91731Y227750D02*
X106731D01*
Y242750*
X91731*
Y227750*
X99481Y260397D02*
X98587Y260381D01*
X97694Y260335*
X96804Y260257*
X95916Y260148*
X95033Y260008*
X94156Y259837*
X93284Y259636*
X92420Y259405*
X91565Y259143*
X90720Y258852*
X89885Y258532*
X89062Y258183*
X88252Y257805*
X87455Y257399*
X86673Y256965*
X85907Y256505*
X85157Y256018*
X84424Y255505*
X83710Y254967*
X83015Y254404*
X82341Y253817*
X81687Y253207*
X81054Y252575*
X80444Y251921*
X79858Y251246*
X79295Y250552*
X78757Y249837*
X78244Y249105*
X77757Y248355*
X77296Y247589*
X76863Y246807*
X76457Y246010*
X76079Y245200*
X75730Y244376*
X75409Y243542*
X75119Y242696*
X74857Y241841*
X74626Y240978*
X74424Y240106*
X74254Y239229*
X74114Y238346*
X74005Y237458*
X73927Y236568*
X73880Y235675*
X73865Y234781*
X73880Y233887*
X73927Y232994*
X74005Y232103*
X74114Y231216*
X74254Y230333*
X74424Y229455*
X74626Y228584*
X74857Y227720*
X75119Y226865*
X75409Y226020*
X75730Y225185*
X76079Y224362*
X76457Y223552*
X76863Y222755*
X77296Y221973*
X77757Y221206*
X78244Y220456*
X78757Y219724*
X79295Y219010*
X79858Y218315*
X80444Y217640*
X81054Y216986*
X81687Y216354*
X82341Y215744*
X83015Y215157*
X83710Y214595*
X84424Y214057*
X85157Y213544*
X85907Y213057*
X86673Y212596*
X87455Y212163*
X88252Y211757*
X89062Y211379*
X89885Y211030*
X90720Y210709*
X91565Y210418*
X92420Y210157*
X93284Y209925*
X94156Y209724*
X95033Y209554*
X95916Y209414*
X96804Y209305*
X97694Y209227*
X98587Y209180*
X99481Y209163*
X100375Y209179*
X101268Y209226*
X102159Y209304*
X103046Y209413*
X103929Y209553*
X104807Y209723*
X105678Y209924*
X106542Y210156*
X107397Y210417*
X108242Y210708*
X109077Y211029*
X109900Y211378*
X110710Y211756*
X111507Y212162*
X112289Y212595*
X113056Y213056*
X113806Y213543*
X114538Y214056*
X115252Y214594*
X115947Y215157*
X116622Y215743*
X117276Y216353*
X117908Y216985*
X118518Y217639*
X119104Y218314*
X119667Y219009*
X120205Y219723*
X120718Y220456*
X121205Y221206*
X121666Y221972*
X122099Y222754*
X122505Y223551*
X122883Y224361*
X123232Y225184*
X123553Y226019*
X123844Y226864*
X124105Y227719*
X124337Y228583*
X124538Y229454*
X124708Y230332*
X124848Y231215*
X124957Y232102*
X125035Y232993*
X125082Y233886*
X125098Y234780*
X125082Y235674*
X125035Y236567*
X124957Y237457*
X124848Y238345*
X124708Y239228*
X124538Y240106*
X124337Y240977*
X124105Y241841*
X123844Y242696*
X123553Y243541*
X123232Y244376*
X122883Y245199*
X122505Y246009*
X122099Y246806*
X121666Y247588*
X121205Y248354*
X120718Y249104*
X120205Y249837*
X119667Y250551*
X119104Y251246*
X118518Y251920*
X117908Y252574*
X117276Y253207*
X116622Y253817*
X115947Y254403*
X115252Y254966*
X114538Y255504*
X113806Y256017*
X113056Y256504*
X112289Y256965*
X111507Y257398*
X110710Y257804*
X109900Y258182*
X109077Y258531*
X108242Y258852*
X107397Y259143*
X106542Y259404*
X105678Y259635*
X104807Y259837*
X103929Y260007*
X103046Y260147*
X102159Y260256*
X101268Y260334*
X100375Y260381*
X99481Y260397*
X150786Y168695D02*
X165786D01*
Y183695*
X150786*
Y168695*
Y286805D02*
X165786D01*
Y301805*
X150786*
Y286805*
X158536Y201342D02*
X157642Y201326D01*
X156749Y201280*
X155859Y201202*
X154971Y201093*
X154088Y200953*
X153211Y200782*
X152339Y200581*
X151476Y200350*
X150620Y200088*
X149775Y199797*
X148941Y199477*
X148117Y199128*
X147307Y198750*
X146510Y198344*
X145728Y197910*
X144962Y197450*
X144212Y196963*
X143480Y196450*
X142765Y195911*
X142070Y195349*
X141396Y194762*
X140742Y194152*
X140109Y193520*
X139500Y192866*
X138913Y192191*
X138350Y191496*
X137812Y190782*
X137299Y190050*
X136812Y189300*
X136352Y188533*
X135918Y187752*
X135512Y186955*
X135134Y186144*
X134785Y185321*
X134465Y184487*
X134174Y183641*
X133912Y182786*
X133681Y181922*
X133480Y181051*
X133309Y180174*
X133169Y179291*
X133060Y178403*
X132982Y177513*
X132935Y176620*
X132920Y175726*
X132935Y174831*
X132982Y173939*
X133060Y173048*
X133169Y172161*
X133309Y171278*
X133480Y170400*
X133681Y169529*
X133912Y168665*
X134174Y167810*
X134465Y166965*
X134785Y166130*
X135134Y165307*
X135512Y164496*
X135918Y163700*
X136352Y162918*
X136812Y162151*
X137299Y161401*
X137812Y160669*
X138350Y159955*
X138913Y159260*
X139500Y158585*
X140109Y157931*
X140742Y157299*
X141396Y156689*
X142070Y156102*
X142765Y155540*
X143480Y155002*
X144212Y154489*
X144962Y154002*
X145728Y153541*
X146510Y153107*
X147307Y152702*
X148117Y152324*
X148941Y151974*
X149775Y151654*
X150620Y151363*
X151476Y151102*
X152339Y150870*
X153211Y150669*
X154088Y150498*
X154971Y150359*
X155859Y150250*
X156749Y150172*
X157642Y150125*
X158536Y150108*
X159430Y150124*
X160323Y150171*
X161214Y150249*
X162101Y150358*
X162984Y150498*
X163862Y150668*
X164733Y150869*
X165597Y151101*
X166452Y151362*
X167297Y151653*
X168132Y151974*
X168955Y152323*
X169765Y152701*
X170562Y153107*
X171344Y153540*
X172111Y154001*
X172861Y154488*
X173593Y155001*
X174307Y155539*
X175002Y156102*
X175677Y156688*
X176331Y157298*
X176963Y157930*
X177573Y158584*
X178159Y159259*
X178722Y159954*
X179260Y160668*
X179773Y161400*
X180260Y162150*
X180721Y162917*
X181154Y163699*
X181560Y164496*
X181938Y165306*
X182287Y166129*
X182608Y166964*
X182899Y167809*
X183160Y168664*
X183392Y169528*
X183593Y170399*
X183763Y171277*
X183903Y172160*
X184012Y173047*
X184090Y173938*
X184137Y174831*
X184153Y175725*
X184137Y176619*
X184090Y177512*
X184012Y178402*
X183903Y179290*
X183763Y180173*
X183593Y181050*
X183392Y181922*
X183160Y182785*
X182899Y183641*
X182608Y184486*
X182287Y185320*
X181938Y186144*
X181560Y186954*
X181154Y187751*
X180721Y188533*
X180260Y189299*
X179773Y190049*
X179260Y190781*
X178722Y191496*
X178159Y192191*
X177573Y192865*
X176963Y193519*
X176331Y194152*
X175677Y194761*
X175002Y195348*
X174307Y195911*
X173593Y196449*
X172861Y196962*
X172111Y197449*
X171344Y197909*
X170562Y198343*
X169765Y198749*
X168955Y199127*
X168132Y199476*
X167297Y199796*
X166452Y200087*
X165597Y200349*
X164733Y200580*
X163862Y200781*
X162984Y200952*
X162101Y201092*
X161214Y201201*
X160323Y201279*
X159430Y201326*
X158536Y201342*
Y319452D02*
X157642Y319437D01*
X156749Y319390*
X155859Y319312*
X154971Y319203*
X154088Y319063*
X153211Y318893*
X152339Y318691*
X151476Y318460*
X150620Y318198*
X149775Y317907*
X148941Y317587*
X148117Y317238*
X147307Y316860*
X146510Y316454*
X145728Y316020*
X144962Y315560*
X144212Y315073*
X143480Y314560*
X142765Y314022*
X142070Y313459*
X141396Y312872*
X140742Y312263*
X140109Y311630*
X139500Y310976*
X138913Y310302*
X138350Y309607*
X137812Y308893*
X137299Y308160*
X136812Y307410*
X136352Y306644*
X135918Y305862*
X135512Y305065*
X135134Y304255*
X134785Y303431*
X134465Y302597*
X134174Y301752*
X133912Y300896*
X133681Y300033*
X133480Y299161*
X133309Y298284*
X133169Y297401*
X133060Y296513*
X132982Y295623*
X132935Y294730*
X132920Y293836*
X132935Y292942*
X132982Y292049*
X133060Y291158*
X133169Y290271*
X133309Y289388*
X133480Y288510*
X133681Y287639*
X133912Y286775*
X134174Y285920*
X134465Y285075*
X134785Y284240*
X135134Y283417*
X135512Y282607*
X135918Y281810*
X136352Y281028*
X136812Y280261*
X137299Y279511*
X137812Y278779*
X138350Y278065*
X138913Y277370*
X139500Y276695*
X140109Y276041*
X140742Y275409*
X141396Y274799*
X142070Y274213*
X142765Y273650*
X143480Y273112*
X144212Y272599*
X144962Y272112*
X145728Y271651*
X146510Y271218*
X147307Y270812*
X148117Y270434*
X148941Y270085*
X149775Y269764*
X150620Y269473*
X151476Y269212*
X152339Y268980*
X153211Y268779*
X154088Y268609*
X154971Y268469*
X155859Y268360*
X156749Y268282*
X157642Y268235*
X158536Y268219*
X159430Y268234*
X160323Y268281*
X161214Y268359*
X162101Y268468*
X162984Y268608*
X163862Y268778*
X164733Y268980*
X165597Y269211*
X166452Y269472*
X167297Y269763*
X168132Y270084*
X168955Y270433*
X169765Y270811*
X170562Y271217*
X171344Y271650*
X172111Y272111*
X172861Y272598*
X173593Y273111*
X174307Y273649*
X175002Y274212*
X175677Y274798*
X176331Y275408*
X176963Y276041*
X177573Y276694*
X178159Y277369*
X178722Y278064*
X179260Y278778*
X179773Y279511*
X180260Y280261*
X180721Y281027*
X181154Y281809*
X181560Y282606*
X181938Y283416*
X182287Y284239*
X182608Y285074*
X182899Y285919*
X183160Y286774*
X183392Y287638*
X183593Y288509*
X183763Y289387*
X183903Y290270*
X184012Y291157*
X184090Y292048*
X184137Y292941*
X184153Y293835*
X184137Y294729*
X184090Y295622*
X184012Y296513*
X183903Y297400*
X183763Y298283*
X183593Y299161*
X183392Y300032*
X183160Y300896*
X182899Y301751*
X182608Y302596*
X182287Y303431*
X181938Y304254*
X181560Y305064*
X181154Y305861*
X180721Y306643*
X180260Y307409*
X179773Y308159*
X179260Y308892*
X178722Y309606*
X178159Y310301*
X177573Y310976*
X176963Y311630*
X176331Y312262*
X175677Y312872*
X175002Y313458*
X174307Y314021*
X173593Y314559*
X172861Y315072*
X172111Y315559*
X171344Y316020*
X170562Y316453*
X169765Y316859*
X168955Y317237*
X168132Y317586*
X167297Y317907*
X166452Y318198*
X165597Y318459*
X164733Y318691*
X163862Y318892*
X162984Y319062*
X162101Y319202*
X161214Y319311*
X160323Y319389*
X159430Y319436*
X158536Y319452*
X209841Y227750D02*
X224841D01*
Y242750*
X209841*
Y227750*
X217591Y260397D02*
X216697Y260381D01*
X215804Y260335*
X214914Y260257*
X214026Y260148*
X213143Y260008*
X212266Y259837*
X211394Y259636*
X210531Y259405*
X209676Y259143*
X208830Y258852*
X207996Y258532*
X207172Y258183*
X206362Y257805*
X205565Y257399*
X204783Y256965*
X204017Y256505*
X203267Y256018*
X202535Y255505*
X201820Y254967*
X201126Y254404*
X200451Y253817*
X199797Y253207*
X199165Y252575*
X198555Y251921*
X197968Y251246*
X197406Y250552*
X196867Y249837*
X196354Y249105*
X195867Y248355*
X195407Y247589*
X194973Y246807*
X194567Y246010*
X194189Y245200*
X193840Y244376*
X193520Y243542*
X193229Y242696*
X192967Y241841*
X192736Y240978*
X192535Y240106*
X192364Y239229*
X192224Y238346*
X192115Y237458*
X192037Y236568*
X191991Y235675*
X191975Y234781*
X191991Y233887*
X192037Y232994*
X192115Y232103*
X192224Y231216*
X192364Y230333*
X192535Y229455*
X192736Y228584*
X192967Y227720*
X193229Y226865*
X193520Y226020*
X193840Y225185*
X194189Y224362*
X194567Y223552*
X194973Y222755*
X195407Y221973*
X195867Y221206*
X196354Y220456*
X196867Y219724*
X197406Y219010*
X197968Y218315*
X198555Y217640*
X199165Y216986*
X199797Y216354*
X200451Y215744*
X201126Y215157*
X201820Y214595*
X202535Y214057*
X203267Y213544*
X204017Y213057*
X204783Y212596*
X205565Y212163*
X206362Y211757*
X207172Y211379*
X207996Y211030*
X208830Y210709*
X209676Y210418*
X210531Y210157*
X211394Y209925*
X212266Y209724*
X213143Y209554*
X214026Y209414*
X214914Y209305*
X215804Y209227*
X216697Y209180*
X217591Y209163*
X218485Y209179*
X219378Y209226*
X220269Y209304*
X221156Y209413*
X222039Y209553*
X222917Y209723*
X223788Y209924*
X224652Y210156*
X225507Y210417*
X226352Y210708*
X227187Y211029*
X228010Y211378*
X228820Y211756*
X229617Y212162*
X230399Y212595*
X231166Y213056*
X231916Y213543*
X232648Y214056*
X233362Y214594*
X234057Y215157*
X234732Y215743*
X235386Y216353*
X236018Y216985*
X236628Y217639*
X237215Y218314*
X237777Y219009*
X238315Y219723*
X238828Y220456*
X239315Y221206*
X239776Y221972*
X240209Y222754*
X240615Y223551*
X240993Y224361*
X241343Y225184*
X241663Y226019*
X241954Y226864*
X242215Y227719*
X242447Y228583*
X242648Y229454*
X242819Y230332*
X242958Y231215*
X243067Y232102*
X243145Y232993*
X243192Y233886*
X243208Y234780*
X243192Y235674*
X243145Y236567*
X243067Y237457*
X242958Y238345*
X242819Y239228*
X242648Y240106*
X242447Y240977*
X242215Y241841*
X241954Y242696*
X241663Y243541*
X241343Y244376*
X240993Y245199*
X240615Y246009*
X240209Y246806*
X239776Y247588*
X239315Y248354*
X238828Y249104*
X238315Y249837*
X237777Y250551*
X237215Y251246*
X236628Y251920*
X236018Y252574*
X235386Y253207*
X234732Y253817*
X234057Y254403*
X233362Y254966*
X232648Y255504*
X231916Y256017*
X231166Y256504*
X230399Y256965*
X229617Y257398*
X228820Y257804*
X228010Y258182*
X227187Y258531*
X226352Y258852*
X225507Y259143*
X224652Y259404*
X223788Y259635*
X222917Y259837*
X222039Y260007*
X221156Y260147*
X220269Y260256*
X219378Y260334*
X218485Y260381*
X217591Y260397*
X308482Y159913D02*
X350982D01*
Y176163*
X308482*
Y159913*
X445561Y176413D02*
X403061D01*
Y160163*
X445561*
Y176413*
X528739Y227750D02*
X543739D01*
Y242750*
X528739*
Y227750*
X536489Y260397D02*
X535595Y260381D01*
X534702Y260335*
X533811Y260257*
X532924Y260148*
X532041Y260008*
X531163Y259837*
X530292Y259636*
X529428Y259405*
X528573Y259143*
X527728Y258852*
X526893Y258532*
X526070Y258183*
X525260Y257805*
X524463Y257399*
X523681Y256965*
X522915Y256505*
X522165Y256018*
X521432Y255505*
X520718Y254967*
X520023Y254404*
X519348Y253817*
X518694Y253207*
X518062Y252575*
X517452Y251921*
X516866Y251246*
X516303Y250552*
X515765Y249837*
X515252Y249105*
X514765Y248355*
X514304Y247589*
X513871Y246807*
X513465Y246010*
X513087Y245200*
X512738Y244376*
X512417Y243542*
X512126Y242696*
X511865Y241841*
X511633Y240978*
X511432Y240106*
X511262Y239229*
X511122Y238346*
X511013Y237458*
X510935Y236568*
X510888Y235675*
X510872Y234781*
X510888Y233887*
X510935Y232994*
X511013Y232103*
X511122Y231216*
X511262Y230333*
X511432Y229455*
X511633Y228584*
X511865Y227720*
X512126Y226865*
X512417Y226020*
X512738Y225185*
X513087Y224362*
X513465Y223552*
X513871Y222755*
X514304Y221973*
X514765Y221206*
X515252Y220456*
X515765Y219724*
X516303Y219010*
X516866Y218315*
X517452Y217640*
X518062Y216986*
X518694Y216354*
X519348Y215744*
X520023Y215157*
X520718Y214595*
X521432Y214057*
X522165Y213544*
X522915Y213057*
X523681Y212596*
X524463Y212163*
X525260Y211757*
X526070Y211379*
X526893Y211030*
X527728Y210709*
X528573Y210418*
X529428Y210157*
X530292Y209925*
X531163Y209724*
X532041Y209554*
X532924Y209414*
X533811Y209305*
X534702Y209227*
X535595Y209180*
X536489Y209163*
X537383Y209179*
X538276Y209226*
X539167Y209304*
X540054Y209413*
X540937Y209553*
X541815Y209723*
X542686Y209924*
X543550Y210156*
X544405Y210417*
X545250Y210708*
X546085Y211029*
X546908Y211378*
X547718Y211756*
X548515Y212162*
X549297Y212595*
X550063Y213056*
X550813Y213543*
X551546Y214056*
X552260Y214594*
X552955Y215157*
X553630Y215743*
X554283Y216353*
X554916Y216985*
X555526Y217639*
X556112Y218314*
X556675Y219009*
X557213Y219723*
X557726Y220456*
X558213Y221206*
X558674Y221972*
X559107Y222754*
X559513Y223551*
X559891Y224361*
X560240Y225184*
X560561Y226019*
X560852Y226864*
X561113Y227719*
X561344Y228583*
X561546Y229454*
X561716Y230332*
X561856Y231215*
X561965Y232102*
X562043Y232993*
X562090Y233886*
X562106Y234780*
X562090Y235674*
X562043Y236567*
X561965Y237457*
X561856Y238345*
X561716Y239228*
X561546Y240106*
X561344Y240977*
X561113Y241841*
X560852Y242696*
X560561Y243541*
X560240Y244376*
X559891Y245199*
X559513Y246009*
X559107Y246806*
X558674Y247588*
X558213Y248354*
X557726Y249104*
X557213Y249837*
X556675Y250551*
X556112Y251246*
X555526Y251920*
X554916Y252574*
X554283Y253207*
X553630Y253817*
X552955Y254403*
X552260Y254966*
X551546Y255504*
X550813Y256017*
X550063Y256504*
X549297Y256965*
X548515Y257398*
X547718Y257804*
X546908Y258182*
X546085Y258531*
X545250Y258852*
X544405Y259143*
X543550Y259404*
X542686Y259635*
X541815Y259837*
X540937Y260007*
X540054Y260147*
X539167Y260256*
X538276Y260334*
X537383Y260381*
X536489Y260397*
X587794Y168695D02*
X602794D01*
Y183695*
X587794*
Y168695*
Y286805D02*
X602794D01*
Y301805*
X587794*
Y286805*
X595544Y201342D02*
X594650Y201326D01*
X593757Y201280*
X592867Y201202*
X591979Y201093*
X591096Y200953*
X590219Y200782*
X589347Y200581*
X588483Y200350*
X587628Y200088*
X586783Y199797*
X585948Y199477*
X585125Y199128*
X584315Y198750*
X583518Y198344*
X582736Y197910*
X581970Y197450*
X581220Y196963*
X580487Y196450*
X579773Y195911*
X579078Y195349*
X578404Y194762*
X577750Y194152*
X577117Y193520*
X576507Y192866*
X575921Y192191*
X575358Y191496*
X574820Y190782*
X574307Y190050*
X573820Y189300*
X573359Y188533*
X572926Y187752*
X572520Y186955*
X572142Y186144*
X571793Y185321*
X571472Y184487*
X571181Y183641*
X570920Y182786*
X570689Y181922*
X570487Y181051*
X570317Y180174*
X570177Y179291*
X570068Y178403*
X569990Y177513*
X569943Y176620*
X569928Y175726*
X569943Y174831*
X569990Y173939*
X570068Y173048*
X570177Y172161*
X570317Y171278*
X570487Y170400*
X570689Y169529*
X570920Y168665*
X571181Y167810*
X571472Y166965*
X571793Y166130*
X572142Y165307*
X572520Y164496*
X572926Y163700*
X573359Y162918*
X573820Y162151*
X574307Y161401*
X574820Y160669*
X575358Y159955*
X575921Y159260*
X576507Y158585*
X577117Y157931*
X577750Y157299*
X578404Y156689*
X579078Y156102*
X579773Y155540*
X580487Y155002*
X581220Y154489*
X581970Y154002*
X582736Y153541*
X583518Y153107*
X584315Y152702*
X585125Y152324*
X585948Y151974*
X586783Y151654*
X587628Y151363*
X588483Y151102*
X589347Y150870*
X590219Y150669*
X591096Y150498*
X591979Y150359*
X592867Y150250*
X593757Y150172*
X594650Y150125*
X595544Y150108*
X596438Y150124*
X597331Y150171*
X598222Y150249*
X599109Y150358*
X599992Y150498*
X600870Y150668*
X601741Y150869*
X602605Y151101*
X603460Y151362*
X604305Y151653*
X605140Y151974*
X605963Y152323*
X606773Y152701*
X607570Y153107*
X608352Y153540*
X609119Y154001*
X609869Y154488*
X610601Y155001*
X611315Y155539*
X612010Y156102*
X612685Y156688*
X613339Y157298*
X613971Y157930*
X614581Y158584*
X615167Y159259*
X615730Y159954*
X616268Y160668*
X616781Y161400*
X617268Y162150*
X617729Y162917*
X618162Y163699*
X618568Y164496*
X618946Y165306*
X619295Y166129*
X619616Y166964*
X619907Y167809*
X620168Y168664*
X620400Y169528*
X620601Y170399*
X620771Y171277*
X620911Y172160*
X621020Y173047*
X621098Y173938*
X621145Y174831*
X621161Y175725*
X621145Y176619*
X621098Y177512*
X621020Y178402*
X620911Y179290*
X620771Y180173*
X620601Y181050*
X620400Y181922*
X620168Y182785*
X619907Y183641*
X619616Y184486*
X619295Y185320*
X618946Y186144*
X618568Y186954*
X618162Y187751*
X617729Y188533*
X617268Y189299*
X616781Y190049*
X616268Y190781*
X615730Y191496*
X615167Y192191*
X614581Y192865*
X613971Y193519*
X613339Y194152*
X612685Y194761*
X612010Y195348*
X611315Y195911*
X610601Y196449*
X609869Y196962*
X609119Y197449*
X608352Y197909*
X607570Y198343*
X606773Y198749*
X605963Y199127*
X605140Y199476*
X604305Y199796*
X603460Y200087*
X602605Y200349*
X601741Y200580*
X600870Y200781*
X599992Y200952*
X599109Y201092*
X598222Y201201*
X597331Y201279*
X596438Y201326*
X595544Y201342*
Y319452D02*
X594650Y319437D01*
X593757Y319390*
X592867Y319312*
X591979Y319203*
X591096Y319063*
X590219Y318893*
X589347Y318691*
X588483Y318460*
X587628Y318198*
X586783Y317907*
X585948Y317587*
X585125Y317238*
X584315Y316860*
X583518Y316454*
X582736Y316020*
X581970Y315560*
X581220Y315073*
X580487Y314560*
X579773Y314022*
X579078Y313459*
X578404Y312872*
X577750Y312263*
X577117Y311630*
X576507Y310976*
X575921Y310302*
X575358Y309607*
X574820Y308893*
X574307Y308160*
X573820Y307410*
X573359Y306644*
X572926Y305862*
X572520Y305065*
X572142Y304255*
X571793Y303431*
X571472Y302597*
X571181Y301752*
X570920Y300896*
X570689Y300033*
X570487Y299161*
X570317Y298284*
X570177Y297401*
X570068Y296513*
X569990Y295623*
X569943Y294730*
X569928Y293836*
X569943Y292942*
X569990Y292049*
X570068Y291158*
X570177Y290271*
X570317Y289388*
X570487Y288510*
X570689Y287639*
X570920Y286775*
X571181Y285920*
X571472Y285075*
X571793Y284240*
X572142Y283417*
X572520Y282607*
X572926Y281810*
X573359Y281028*
X573820Y280261*
X574307Y279511*
X574820Y278779*
X575358Y278065*
X575921Y277370*
X576507Y276695*
X577117Y276041*
X577750Y275409*
X578404Y274799*
X579078Y274213*
X579773Y273650*
X580487Y273112*
X581220Y272599*
X581970Y272112*
X582736Y271651*
X583518Y271218*
X584315Y270812*
X585125Y270434*
X585948Y270085*
X586783Y269764*
X587628Y269473*
X588483Y269212*
X589347Y268980*
X590219Y268779*
X591096Y268609*
X591979Y268469*
X592867Y268360*
X593757Y268282*
X594650Y268235*
X595544Y268219*
X596438Y268234*
X597331Y268281*
X598222Y268359*
X599109Y268468*
X599992Y268608*
X600870Y268778*
X601741Y268980*
X602605Y269211*
X603460Y269472*
X604305Y269763*
X605140Y270084*
X605963Y270433*
X606773Y270811*
X607570Y271217*
X608352Y271650*
X609119Y272111*
X609869Y272598*
X610601Y273111*
X611315Y273649*
X612010Y274212*
X612685Y274798*
X613339Y275408*
X613971Y276041*
X614581Y276694*
X615167Y277369*
X615730Y278064*
X616268Y278778*
X616781Y279511*
X617268Y280261*
X617729Y281027*
X618162Y281809*
X618568Y282606*
X618946Y283416*
X619295Y284239*
X619616Y285074*
X619907Y285919*
X620168Y286774*
X620400Y287638*
X620601Y288509*
X620771Y289387*
X620911Y290270*
X621020Y291157*
X621098Y292048*
X621145Y292941*
X621161Y293835*
X621145Y294729*
X621098Y295622*
X621020Y296513*
X620911Y297400*
X620771Y298283*
X620601Y299161*
X620400Y300032*
X620168Y300896*
X619907Y301751*
X619616Y302596*
X619295Y303431*
X618946Y304254*
X618568Y305064*
X618162Y305861*
X617729Y306643*
X617268Y307409*
X616781Y308159*
X616268Y308892*
X615730Y309606*
X615167Y310301*
X614581Y310976*
X613971Y311630*
X613339Y312262*
X612685Y312872*
X612010Y313458*
X611315Y314021*
X610601Y314559*
X609869Y315072*
X609119Y315559*
X608352Y316020*
X607570Y316453*
X606773Y316859*
X605963Y317237*
X605140Y317586*
X604305Y317907*
X603460Y318198*
X602605Y318459*
X601741Y318691*
X600870Y318892*
X599992Y319062*
X599109Y319202*
X598222Y319311*
X597331Y319389*
X596438Y319436*
X595544Y319452*
X646849Y227750D02*
X661849D01*
Y242750*
X646849*
Y227750*
X654599Y260397D02*
X653705Y260381D01*
X652812Y260335*
X651922Y260257*
X651034Y260148*
X650151Y260008*
X649274Y259837*
X648402Y259636*
X647539Y259405*
X646683Y259143*
X645838Y258852*
X645004Y258532*
X644180Y258183*
X643370Y257805*
X642573Y257399*
X641791Y256965*
X641025Y256505*
X640275Y256018*
X639543Y255505*
X638828Y254967*
X638133Y254404*
X637459Y253817*
X636805Y253207*
X636172Y252575*
X635563Y251921*
X634976Y251246*
X634413Y250552*
X633875Y249837*
X633362Y249105*
X632875Y248355*
X632415Y247589*
X631981Y246807*
X631575Y246010*
X631197Y245200*
X630848Y244376*
X630528Y243542*
X630237Y242696*
X629975Y241841*
X629744Y240978*
X629543Y240106*
X629372Y239229*
X629232Y238346*
X629123Y237458*
X629045Y236568*
X628998Y235675*
X628983Y234781*
X628998Y233887*
X629045Y232994*
X629123Y232103*
X629232Y231216*
X629372Y230333*
X629543Y229455*
X629744Y228584*
X629975Y227720*
X630237Y226865*
X630528Y226020*
X630848Y225185*
X631197Y224362*
X631575Y223552*
X631981Y222755*
X632415Y221973*
X632875Y221206*
X633362Y220456*
X633875Y219724*
X634413Y219010*
X634976Y218315*
X635563Y217640*
X636172Y216986*
X636805Y216354*
X637459Y215744*
X638133Y215157*
X638828Y214595*
X639543Y214057*
X640275Y213544*
X641025Y213057*
X641791Y212596*
X642573Y212163*
X643370Y211757*
X644180Y211379*
X645004Y211030*
X645838Y210709*
X646683Y210418*
X647539Y210157*
X648402Y209925*
X649274Y209724*
X650151Y209554*
X651034Y209414*
X651922Y209305*
X652812Y209227*
X653705Y209180*
X654599Y209163*
X655493Y209179*
X656386Y209226*
X657277Y209304*
X658164Y209413*
X659047Y209553*
X659925Y209723*
X660796Y209924*
X661660Y210156*
X662515Y210417*
X663360Y210708*
X664195Y211029*
X665018Y211378*
X665828Y211756*
X666625Y212162*
X667407Y212595*
X668174Y213056*
X668924Y213543*
X669656Y214056*
X670370Y214594*
X671065Y215157*
X671740Y215743*
X672394Y216353*
X673026Y216985*
X673636Y217639*
X674222Y218314*
X674785Y219009*
X675323Y219723*
X675836Y220456*
X676323Y221206*
X676784Y221972*
X677217Y222754*
X677623Y223551*
X678001Y224361*
X678350Y225184*
X678671Y226019*
X678962Y226864*
X679223Y227719*
X679455Y228583*
X679656Y229454*
X679826Y230332*
X679966Y231215*
X680075Y232102*
X680153Y232993*
X680200Y233886*
X680216Y234780*
X680200Y235674*
X680153Y236567*
X680075Y237457*
X679966Y238345*
X679826Y239228*
X679656Y240106*
X679455Y240977*
X679223Y241841*
X678962Y242696*
X678671Y243541*
X678350Y244376*
X678001Y245199*
X677623Y246009*
X677217Y246806*
X676784Y247588*
X676323Y248354*
X675836Y249104*
X675323Y249837*
X674785Y250551*
X674222Y251246*
X673636Y251920*
X673026Y252574*
X672394Y253207*
X671740Y253817*
X671065Y254403*
X670370Y254966*
X669656Y255504*
X668924Y256017*
X668174Y256504*
X667407Y256965*
X666625Y257398*
X665828Y257804*
X665018Y258182*
X664195Y258531*
X663360Y258852*
X662515Y259143*
X661660Y259404*
X660796Y259635*
X659925Y259837*
X659047Y260007*
X658164Y260147*
X657277Y260256*
X656386Y260334*
X655493Y260381*
X654599Y260397*
D02*
D71*
X144463Y400959D02*
X174463D01*
Y410959*
X144463*
Y400959*
X230841Y410959D02*
X210841D01*
Y400959*
X230841*
Y410959*
X495644Y399384D02*
X525644D01*
Y409384*
X495644*
Y399384*
X577533D02*
X597533D01*
Y409384*
X577533*
Y399384*
D02*
D21*
X297494Y143459D02*
X298232Y141982D01*
X299709Y141244*
X302661*
X304138Y141982*
X304876Y143459*
X304138Y144935*
X302661Y145673*
X299709*
X298232Y146411*
X297494Y147888*
X298232Y149364*
X299709Y150102*
X302661*
X304138Y149364*
X304876Y147888*
X309305Y141244D02*
Y150102D01*
X316687*
X315211Y145673D02*
X309305D01*
Y141244D02*
X316687D01*
X321116Y150102D02*
Y141244D01*
X328498*
X332927D02*
Y150102D01*
X340309*
X338833Y145673D02*
X332927D01*
Y141244D02*
X340309D01*
X352120Y142720D02*
X351382Y141982D01*
X349906Y141244*
X347691*
X346215Y141982*
X345476Y142720*
X344738Y144197*
Y147150*
X345476Y148626*
X346215Y149364*
X347691Y150102*
X349906*
X351382Y149364*
X352120Y148626*
X360240Y141244D02*
Y150102D01*
X356549D02*
X363931D01*
X396707Y144246D02*
X397445Y142770D01*
X398921Y142031*
X401874*
X403350Y142770*
X404089Y144246*
X403350Y145722*
X401874Y146461*
X398921*
X397445Y147199*
X396707Y148675*
X397445Y150152*
X398921Y150890*
X401874*
X403350Y150152*
X404089Y148675*
X412209Y142031D02*
Y150890D01*
X408518D02*
X415900D01*
X420329Y142031D02*
X424020Y150890D01*
X427711Y142031*
X421805Y145722D02*
X426234D01*
X432140Y142031D02*
Y150890D01*
X437307*
X438783Y150152*
X439522Y148675*
X438783Y147199*
X437307Y146461*
X432140*
X437307D02*
X439522Y142031D01*
X447642D02*
Y150890D01*
X443951D02*
X451333D01*
D02*
D22*
X150028Y370526D02*
Y373478D01*
X151505Y372002D02*
X148552D01*
X151136Y376800D02*
X151505Y377539D01*
Y378277*
X151136Y379015*
X150398Y379384*
X149659Y379015*
X149290Y378277*
Y377539*
Y378277D02*
X148921Y379015D01*
X148183Y379384*
X147445Y379015*
X147076Y378277*
Y377539*
X147445Y376800*
X151505Y382706D02*
X151136Y383075D01*
X150767Y382706*
X151136Y382337*
X151505Y382706*
X151136Y388611D02*
X151505Y389350D01*
Y390088*
X151136Y390826*
X150398Y391195*
X149659Y390826*
X149290Y390088*
Y389350*
Y390088D02*
X148921Y390826D01*
X148183Y391195*
X147445Y390826*
X147076Y390088*
Y389350*
X147445Y388611*
X147076Y394148D02*
X151505Y395993D01*
X147076Y397839*
X161741Y389374D02*
Y390850D01*
Y390112D02*
X157312D01*
X158050Y389374*
X161372Y394541D02*
X161741Y395280D01*
Y396387*
X161372Y397125*
X160634Y397494*
X160265*
X159526Y397125*
X159157Y396387*
Y394541*
X157312*
Y397494*
X170132Y383346D02*
Y384453D01*
X170501*
X171239Y384084*
X171608Y383715*
X171977Y382976*
Y382238*
X171608Y381500*
X171239Y381131*
X170501Y380762*
X169024*
X168286Y381131*
X167917Y381500*
X167548Y382238*
Y382976*
X167917Y383715*
X168286Y384084*
X169024Y384453*
X171977Y386667D02*
X167548D01*
X171977Y390358*
X167548*
X171977Y392573D02*
X167548D01*
Y394787*
X167917Y395526*
X168286Y395895*
X169024Y396264*
X170501*
X171239Y395895*
X171608Y395526*
X171977Y394787*
Y392573*
X201431Y391318D02*
Y395747D01*
X204015*
X204753Y395378*
X205122Y394640*
X204753Y393902*
X204015Y393533*
X201431*
X204015D02*
X205122Y391318D01*
X210289Y391687D02*
X209920Y391318D01*
X209182*
X208444*
X207706Y391687*
X207337Y392425*
Y393533*
X207706Y393902*
X208444Y394271*
X209182*
X209920Y393902*
X210289Y393533*
Y393163*
X209920Y392794*
X209182Y392425*
X208444*
X207706Y392794*
X207337Y393163*
X216195D02*
X215826Y393902D01*
X215088Y394271*
X214350*
X213611Y393902*
X213242Y393163*
Y392794*
X213611Y392056*
X214350Y391687*
X215088*
X215826Y392056*
X216195Y392794*
Y394271D02*
Y391318D01*
X215826Y390580*
X215088Y390211*
X213980*
X213242Y390580*
X225053Y392794D02*
Y394271D01*
X225422Y395009*
X225791Y395378*
X226530Y395747*
X227268*
X228006Y395378*
X228375Y395009*
X228744Y394271*
Y392794*
X228375Y392056*
X228006Y391687*
X227268Y391318*
X226530*
X225791Y391687*
X225422Y392056*
X225053Y392794*
X230959Y391318D02*
Y395747D01*
X234650*
X233911Y393533D02*
X230959D01*
X236864Y391318D02*
Y395747D01*
X240555*
X239817Y393533D02*
X236864D01*
X500422Y367376D02*
Y370329D01*
X501898Y368852D02*
X498946D01*
X501530Y373651D02*
X501898Y374389D01*
Y375127*
X501530Y375865*
X500791Y376234*
X500053Y375865*
X499684Y375127*
Y374389*
Y375127D02*
X499315Y375865D01*
X498577Y376234*
X497839Y375865*
X497469Y375127*
Y374389*
X497839Y373651*
X501898Y379556D02*
X501530Y379925D01*
X501160Y379556*
X501530Y379187*
X501898Y379556*
X501530Y385462D02*
X501898Y386200D01*
Y386938*
X501530Y387676*
X500791Y388045*
X500053Y387676*
X499684Y386938*
Y386200*
Y386938D02*
X499315Y387676D01*
X498577Y388045*
X497839Y387676*
X497469Y386938*
Y386200*
X497839Y385462*
X497469Y390998D02*
X501898Y392844D01*
X497469Y394689*
X511766Y390580D02*
X512135Y391318D01*
Y392056*
X511766Y392794*
X511028Y393163*
X508813*
X508075Y392794*
X507706Y392056*
Y391318*
X508075Y390580*
X508813Y390211*
X511028*
X511766Y390580*
X508075Y392794*
X520526Y380196D02*
Y381303D01*
X520894*
X521633Y380934*
X522002Y380565*
X522371Y379827*
Y379089*
X522002Y378350*
X521633Y377981*
X520894Y377612*
X519418*
X518680Y377981*
X518311Y378350*
X517942Y379089*
Y379827*
X518311Y380565*
X518680Y380934*
X519418Y381303*
X522371Y383518D02*
X517942D01*
X522371Y387209*
X517942*
X522371Y389423D02*
X517942D01*
Y391638*
X518311Y392376*
X518680Y392745*
X519418Y393114*
X520894*
X521633Y392745*
X522002Y392376*
X522371Y391638*
Y389423*
X584772Y378793D02*
X580343Y380639D01*
X584772Y382484*
X582927Y379531D02*
Y381746D01*
X584772Y384699D02*
X580343D01*
Y386913*
X580713Y387652*
X581081Y388021*
X581820Y388390*
X583296*
X584034Y388021*
X584404Y387652*
X584772Y386913*
Y384699*
X584034Y394295D02*
X584404Y393926D01*
X584772Y393188*
Y392081*
X584404Y391343*
X584034Y390974*
X583296Y390604*
X581820*
X581081Y390974*
X580713Y391343*
X580343Y392081*
Y393188*
X580713Y393926*
X581081Y394295*
X592770Y381771D02*
Y382878D01*
X593139*
X593877Y382509*
X594246Y382140*
X594615Y381402*
Y380663*
X594246Y379925*
X593877Y379556*
X593139Y379187*
X591662*
X590924Y379556*
X590555Y379925*
X590186Y380663*
Y381402*
X590555Y382140*
X590924Y382509*
X591662Y382878*
X594615Y385093D02*
X590186D01*
X594615Y388783*
X590186*
X594615Y390998D02*
X590186D01*
Y393213*
X590555Y393951*
X590924Y394320*
X591662Y394689*
X593139*
X593877Y394320*
X594246Y393951*
X594615Y393213*
Y390998*
D02*
D23*
X146727Y229564D02*
X147893Y231592D01*
X149060Y233620*
X150227Y235648*
X151393Y237675*
X151407Y237703*
X151421Y237731*
X151449Y237787*
X151421Y237800*
X151393Y237814*
X151366Y237828*
X151338Y237842*
X149032Y239175*
X147880Y239842*
X146727Y240509*
Y241398*
X147977Y240675*
X149227Y239953*
X150477Y239231*
X151727Y238509*
X151754Y238495*
X151782Y238481*
X151810Y238467*
X151838Y238453*
X151852Y238481*
X151866Y238509*
X151880Y238537*
X151893Y238564*
X153199Y240828*
X154504Y243092*
X155810Y245356*
X157116Y247620*
X157449Y247814*
X157616Y247911*
X157782Y248009*
Y247231*
X153866Y240439*
X152560Y238175*
X152546Y238148*
X152532Y238120*
X152519Y238092*
X152504Y238064*
X152532Y238050*
X152560Y238037*
X152588Y238022*
X152616Y238009*
X153866Y237287*
X155116Y236564*
X156366Y235842*
X157616Y235120*
X157032Y234787*
X156838Y234675*
X155685Y235342*
X153380Y236675*
X152227Y237342*
X152199Y237356*
X152171Y237370*
X152143Y237384*
X152116Y237398*
X152102Y237370*
X152088Y237342*
X152074Y237314*
X152060Y237287*
X149727Y233231*
X148560Y231203*
X147393Y229175*
X147227Y229078*
X147060Y228981*
X146893Y228884*
X146727Y228787*
Y229564*
X158000Y248946D02*
Y248072D01*
X157750Y247822*
X157001Y247573*
X151759Y238462*
X146643Y241457*
Y240459*
X151385Y237713*
X146643Y229601*
Y228852*
X147516Y229352*
X152134Y237464*
X166861Y228977*
X147516*
X146767Y228603*
X158000Y222113*
Y221239*
X145894Y228104*
Y242081*
X158000Y248946*
X157941Y221272D02*
X158000D01*
X157598Y221467D02*
X158000D01*
X157254Y221662D02*
X158000D01*
X156910Y221857D02*
X158000D01*
X156567Y222052D02*
X158000D01*
X156223Y222247D02*
X157768D01*
X155879Y222442D02*
X157431D01*
X155535Y222637D02*
X157093D01*
X155192Y222831D02*
X156756D01*
X154848Y223026D02*
X156419D01*
X154504Y223221D02*
X156081D01*
X154161Y223416D02*
X155744D01*
X153817Y223611D02*
X155407D01*
X153473Y223806D02*
X155070D01*
X153130Y224001D02*
X154732D01*
X152786Y224196D02*
X154395D01*
X152442Y224391D02*
X154058D01*
X152098Y224585D02*
X153720D01*
X151755Y224780D02*
X153383D01*
X151411Y224975D02*
X153046D01*
X151067Y225170D02*
X152709D01*
X150724Y225365D02*
X152371D01*
X150380Y225560D02*
X152034D01*
X150036Y225755D02*
X151696D01*
X149693Y225950D02*
X151359D01*
X149349Y226144D02*
X151022D01*
X149005Y226339D02*
X150685D01*
X148661Y226534D02*
X150347D01*
X148318Y226729D02*
X150010D01*
X147974Y226924D02*
X149673D01*
X147630Y227119D02*
X149335D01*
X147287Y227314D02*
X148998D01*
X146943Y227509D02*
X148661D01*
X146599Y227704D02*
X148324D01*
X146256Y227898D02*
X147986D01*
X145912Y228093D02*
X147649D01*
X145894Y228288D02*
X147312D01*
X145894Y228483D02*
X146974D01*
X145894Y228678D02*
X146918D01*
X145894Y228873D02*
X146643D01*
X146678D02*
X147307D01*
X145894Y229068D02*
X146643D01*
X147019D02*
X166704D01*
X145894Y229263D02*
X146643D01*
X147361D02*
X166365D01*
X145894Y229457D02*
X146643D01*
X147576D02*
X166027D01*
X145894Y229652D02*
X146672D01*
X147687D02*
X165689D01*
X145894Y229847D02*
X146786D01*
X147798D02*
X165351D01*
X145894Y230042D02*
X146900D01*
X147909D02*
X165013D01*
X145894Y230237D02*
X147014D01*
X148020D02*
X164674D01*
X145894Y230432D02*
X147128D01*
X148131D02*
X164336D01*
X145894Y230627D02*
X147242D01*
X148242D02*
X163998D01*
X145894Y230822D02*
X147356D01*
X148353D02*
X163660D01*
X145894Y231017D02*
X147470D01*
X148464D02*
X163322D01*
X145894Y231211D02*
X147584D01*
X148575D02*
X162983D01*
X145894Y231406D02*
X147698D01*
X148686D02*
X162645D01*
X145894Y231601D02*
X147812D01*
X148797D02*
X162307D01*
X145894Y231796D02*
X147926D01*
X148907D02*
X161969D01*
X145894Y231991D02*
X148040D01*
X149019D02*
X161631D01*
X145894Y232186D02*
X148154D01*
X149130D02*
X161293D01*
X145894Y232381D02*
X148267D01*
X149241D02*
X160954D01*
X145894Y232576D02*
X148381D01*
X149351D02*
X160616D01*
X145894Y232770D02*
X148495D01*
X149462D02*
X160278D01*
X145894Y232965D02*
X148609D01*
X149573D02*
X159940D01*
X145894Y233160D02*
X148723D01*
X149684D02*
X159602D01*
X145894Y233355D02*
X148837D01*
X149795D02*
X159264D01*
X145894Y233550D02*
X148951D01*
X149906D02*
X158926D01*
X145894Y233745D02*
X149065D01*
X150017D02*
X158587D01*
X145894Y233940D02*
X149179D01*
X150128D02*
X158249D01*
X145894Y234135D02*
X149293D01*
X150239D02*
X157911D01*
X145894Y234330D02*
X149407D01*
X150350D02*
X157573D01*
X145894Y234524D02*
X149521D01*
X150461D02*
X157235D01*
X145894Y234719D02*
X149635D01*
X150572D02*
X156896D01*
X145894Y234914D02*
X149748D01*
X150683D02*
X156558D01*
X145894Y235109D02*
X149863D01*
X150793D02*
X156220D01*
X145894Y235304D02*
X149976D01*
X150904D02*
X155882D01*
X145894Y235499D02*
X150091D01*
X151015D02*
X155544D01*
X145894Y235694D02*
X150204D01*
X151126D02*
X155206D01*
X145894Y235889D02*
X150318D01*
X151237D02*
X154867D01*
X145894Y236083D02*
X150432D01*
X151348D02*
X154529D01*
X145894Y236278D02*
X150546D01*
X151459D02*
X154191D01*
X145894Y236473D02*
X150660D01*
X151570D02*
X153853D01*
X145894Y236668D02*
X150774D01*
X151681D02*
X153515D01*
X145894Y236863D02*
X150888D01*
X151792D02*
X153176D01*
X145894Y237058D02*
X151002D01*
X151903D02*
X152838D01*
X145894Y237253D02*
X151116D01*
X152014D02*
X152500D01*
X145894Y237448D02*
X151230D01*
X152125D02*
X152162D01*
X145894Y237643D02*
X151344D01*
X145894Y237837D02*
X151171D01*
X145894Y238032D02*
X150834D01*
X145894Y238227D02*
X150498D01*
X145894Y238422D02*
X150161D01*
X145894Y238617D02*
X149824D01*
X151495D02*
X151848D01*
X145894Y238812D02*
X149488D01*
X151162D02*
X151961D01*
X145894Y239007D02*
X149151D01*
X150829D02*
X152073D01*
X145894Y239202D02*
X148815D01*
X150496D02*
X152185D01*
X145894Y239396D02*
X148478D01*
X150163D02*
X152297D01*
X145894Y239591D02*
X148141D01*
X149830D02*
X152409D01*
X145894Y239786D02*
X147805D01*
X149498D02*
X152521D01*
X145894Y239981D02*
X147468D01*
X149165D02*
X152633D01*
X145894Y240176D02*
X147131D01*
X148832D02*
X152745D01*
X145894Y240371D02*
X146795D01*
X148499D02*
X152857D01*
X145894Y240566D02*
X146643D01*
X148166D02*
X152970D01*
X145894Y240761D02*
X146643D01*
X147833D02*
X153082D01*
X145894Y240956D02*
X146643D01*
X147500D02*
X153194D01*
X145894Y241150D02*
X146643D01*
X147167D02*
X153306D01*
X145894Y241345D02*
X146643D01*
X146834D02*
X153418D01*
X145894Y241540D02*
X153530D01*
X145894Y241735D02*
X153643D01*
X145894Y241930D02*
X153755D01*
X145970Y242125D02*
X153867D01*
X146314Y242320D02*
X153979D01*
X146657Y242515D02*
X154091D01*
X147001Y242709D02*
X154203D01*
X147345Y242904D02*
X154315D01*
X147689Y243099D02*
X154427D01*
X148032Y243294D02*
X154539D01*
X148376Y243489D02*
X154652D01*
X148720Y243684D02*
X154764D01*
X149063Y243879D02*
X154876D01*
X149407Y244074D02*
X154988D01*
X149751Y244269D02*
X155100D01*
X150094Y244463D02*
X155212D01*
X150438Y244658D02*
X155324D01*
X150782Y244853D02*
X155437D01*
X151126Y245048D02*
X155548D01*
X151469Y245243D02*
X155661D01*
X151813Y245438D02*
X155773D01*
X152157Y245633D02*
X155885D01*
X152500Y245828D02*
X155997D01*
X152844Y246022D02*
X156109D01*
X153188Y246217D02*
X156221D01*
X153531Y246412D02*
X156333D01*
X153875Y246607D02*
X156446D01*
X154219Y246802D02*
X156557D01*
X154563Y246997D02*
X156670D01*
X154906Y247192D02*
X156782D01*
X155250Y247387D02*
X156894D01*
X155594Y247581D02*
X157027D01*
X155937Y247776D02*
X157612D01*
X156281Y247971D02*
X157899D01*
X156625Y248166D02*
X158000D01*
X156969Y248361D02*
X158000D01*
X157312Y248556D02*
X158000D01*
X157656Y248751D02*
X158000D01*
Y248946D02*
X169981Y242081D01*
Y228104*
X158000Y221239*
Y222238*
X158624Y222612*
X149014Y228228*
X168358*
X169107Y228603*
X158000Y234968*
X157126Y234469*
X156876Y234718*
X157625Y235217*
X152508Y238088*
X157750Y247198*
Y247947*
X158000*
Y247323*
X163366Y238213*
X158249Y235093*
X159123Y234593*
X169232Y240584*
Y241457*
X164115Y238462*
X158748Y247573*
X158000Y248072*
Y248946*
Y221272D02*
X158057D01*
X158000Y221467D02*
X158398D01*
X158000Y221662D02*
X158738D01*
X158000Y221857D02*
X159078D01*
X158000Y222052D02*
X159418D01*
X158015Y222247D02*
X159758D01*
X158339Y222442D02*
X160098D01*
X158582Y222637D02*
X160439D01*
X158248Y222831D02*
X160779D01*
X157915Y223026D02*
X161119D01*
X157581Y223221D02*
X161459D01*
X157248Y223416D02*
X161799D01*
X156915Y223611D02*
X162139D01*
X156581Y223806D02*
X162480D01*
X156248Y224001D02*
X162820D01*
X155914Y224196D02*
X163160D01*
X155581Y224391D02*
X163500D01*
X155247Y224585D02*
X163840D01*
X154914Y224780D02*
X164180D01*
X154580Y224975D02*
X164520D01*
X154247Y225170D02*
X164861D01*
X153913Y225365D02*
X165201D01*
X153580Y225560D02*
X165541D01*
X153246Y225755D02*
X165881D01*
X152913Y225950D02*
X166221D01*
X152580Y226144D02*
X166561D01*
X152246Y226339D02*
X166902D01*
X151913Y226534D02*
X167242D01*
X151579Y226729D02*
X167582D01*
X151246Y226924D02*
X167922D01*
X150912Y227119D02*
X168262D01*
X150579Y227314D02*
X168602D01*
X150245Y227509D02*
X168943D01*
X149912Y227704D02*
X169283D01*
X149578Y227898D02*
X169623D01*
X149245Y228093D02*
X169963D01*
X168478Y228288D02*
X169981D01*
X168868Y228483D02*
X169981D01*
X168976Y228678D02*
X169981D01*
X168636Y228873D02*
X169981D01*
X168296Y229068D02*
X169981D01*
X167956Y229263D02*
X169981D01*
X167615Y229457D02*
X169981D01*
X167276Y229652D02*
X169981D01*
X166935Y229847D02*
X169981D01*
X166595Y230042D02*
X169981D01*
X166255Y230237D02*
X169981D01*
X165915Y230432D02*
X169981D01*
X165575Y230627D02*
X169981D01*
X165235Y230822D02*
X169981D01*
X164895Y231017D02*
X169981D01*
X164555Y231211D02*
X169981D01*
X164215Y231406D02*
X169981D01*
X163874Y231601D02*
X169981D01*
X163535Y231796D02*
X169981D01*
X163194Y231991D02*
X169981D01*
X162854Y232186D02*
X169981D01*
X162514Y232381D02*
X169981D01*
X162174Y232576D02*
X169981D01*
X161834Y232770D02*
X169981D01*
X161494Y232965D02*
X169981D01*
X161154Y233160D02*
X169981D01*
X160814Y233355D02*
X169981D01*
X160474Y233550D02*
X169981D01*
X160133Y233745D02*
X169981D01*
X159793Y233940D02*
X169981D01*
X159454Y234135D02*
X169981D01*
X159113Y234330D02*
X169981D01*
X157070Y234524D02*
X157224D01*
X158773D02*
X169981D01*
X156878Y234719D02*
X157565D01*
X158433D02*
X158902D01*
X159335D02*
X169981D01*
X157170Y234914D02*
X157906D01*
X158093D02*
X158561D01*
X159664D02*
X169981D01*
X157463Y235109D02*
X158276D01*
X159993D02*
X169981D01*
X157471Y235304D02*
X158596D01*
X160322D02*
X169981D01*
X157123Y235499D02*
X158915D01*
X160651D02*
X169981D01*
X156776Y235694D02*
X159235D01*
X160980D02*
X169981D01*
X156429Y235889D02*
X159555D01*
X161309D02*
X169981D01*
X156081Y236083D02*
X159874D01*
X161637D02*
X169981D01*
X155734Y236278D02*
X160194D01*
X161967D02*
X169981D01*
X155386Y236473D02*
X160513D01*
X162295D02*
X169981D01*
X155039Y236668D02*
X160833D01*
X162624D02*
X169981D01*
X154692Y236863D02*
X161153D01*
X162953D02*
X169981D01*
X154344Y237058D02*
X161472D01*
X163282D02*
X169981D01*
X153997Y237253D02*
X161792D01*
X163611D02*
X169981D01*
X153650Y237448D02*
X162111D01*
X163939D02*
X169981D01*
X153302Y237643D02*
X162431D01*
X164269D02*
X169981D01*
X152955Y237837D02*
X162751D01*
X164597D02*
X169981D01*
X152607Y238032D02*
X163070D01*
X164926D02*
X169981D01*
X152589Y238227D02*
X163357D01*
X165255D02*
X169981D01*
X152700Y238422D02*
X163243D01*
X165584D02*
X169981D01*
X152813Y238617D02*
X163128D01*
X164024D02*
X164379D01*
X165913D02*
X169981D01*
X152925Y238812D02*
X163013D01*
X163909D02*
X164712D01*
X166242D02*
X169981D01*
X153037Y239007D02*
X162898D01*
X163794D02*
X165045D01*
X166570D02*
X169981D01*
X153149Y239202D02*
X162783D01*
X163680D02*
X165378D01*
X166899D02*
X169981D01*
X153261Y239396D02*
X162669D01*
X163565D02*
X165711D01*
X167228D02*
X169981D01*
X153373Y239591D02*
X162554D01*
X163450D02*
X166044D01*
X167557D02*
X169981D01*
X153485Y239786D02*
X162439D01*
X163335D02*
X166377D01*
X167886D02*
X169981D01*
X153598Y239981D02*
X162324D01*
X163220D02*
X166710D01*
X168215D02*
X169981D01*
X153710Y240176D02*
X162209D01*
X163106D02*
X167043D01*
X168544D02*
X169981D01*
X153822Y240371D02*
X162095D01*
X162991D02*
X167376D01*
X168872D02*
X169981D01*
X153934Y240566D02*
X161980D01*
X162876D02*
X167709D01*
X169201D02*
X169981D01*
X154046Y240761D02*
X161865D01*
X162761D02*
X168041D01*
X169232D02*
X169981D01*
X154158Y240956D02*
X161750D01*
X162646D02*
X168374D01*
X169232D02*
X169981D01*
X154270Y241150D02*
X161636D01*
X162531D02*
X168707D01*
X169232D02*
X169981D01*
X154382Y241345D02*
X161521D01*
X162417D02*
X169040D01*
X169232D02*
X169981D01*
X154494Y241540D02*
X161406D01*
X162302D02*
X169981D01*
X154607Y241735D02*
X161291D01*
X162187D02*
X169981D01*
X154719Y241930D02*
X161176D01*
X162072D02*
X169981D01*
X154831Y242125D02*
X161062D01*
X161957D02*
X169905D01*
X154943Y242320D02*
X160947D01*
X161843D02*
X169565D01*
X155055Y242515D02*
X160832D01*
X161728D02*
X169225D01*
X155167Y242709D02*
X160717D01*
X161613D02*
X168885D01*
X155280Y242904D02*
X160602D01*
X161498D02*
X168544D01*
X155392Y243099D02*
X160488D01*
X161383D02*
X168204D01*
X155504Y243294D02*
X160373D01*
X161269D02*
X167864D01*
X155616Y243489D02*
X160258D01*
X161154D02*
X167524D01*
X155728Y243684D02*
X160143D01*
X161039D02*
X167184D01*
X155840Y243879D02*
X160029D01*
X160924D02*
X166844D01*
X155952Y244074D02*
X159914D01*
X160809D02*
X166504D01*
X156064Y244269D02*
X159799D01*
X160695D02*
X166163D01*
X156176Y244463D02*
X159684D01*
X160580D02*
X165823D01*
X156289Y244658D02*
X159569D01*
X160465D02*
X165483D01*
X156401Y244853D02*
X159455D01*
X160350D02*
X165143D01*
X156513Y245048D02*
X159340D01*
X160236D02*
X164803D01*
X156625Y245243D02*
X159225D01*
X160121D02*
X164463D01*
X156737Y245438D02*
X159110D01*
X160006D02*
X164122D01*
X156849Y245633D02*
X158995D01*
X159891D02*
X163782D01*
X156961Y245828D02*
X158881D01*
X159776D02*
X163442D01*
X157073Y246022D02*
X158766D01*
X159662D02*
X163102D01*
X157185Y246217D02*
X158651D01*
X159547D02*
X162762D01*
X157298Y246412D02*
X158536D01*
X159432D02*
X162422D01*
X157410Y246607D02*
X158421D01*
X159317D02*
X162081D01*
X157522Y246802D02*
X158307D01*
X159202D02*
X161741D01*
X157634Y246997D02*
X158192D01*
X159088D02*
X161401D01*
X157746Y247192D02*
X158077D01*
X158973D02*
X161061D01*
X157750Y247387D02*
X158000D01*
X158858D02*
X160721D01*
X157750Y247581D02*
X158000D01*
X158735D02*
X160381D01*
X157750Y247776D02*
X158000D01*
X158443D02*
X160041D01*
X158151Y247971D02*
X159700D01*
X158000Y248166D02*
X159360D01*
X158000Y248361D02*
X159020D01*
X158000Y248556D02*
X158680D01*
X158000Y248751D02*
X158340D01*
X168393Y228175D02*
X149060D01*
X149171Y228106*
X149282Y228037*
X149393Y227967*
X149504Y227898*
X151796Y226578*
X156380Y223939*
X158671Y222620*
X158088Y222287*
X157893Y222175*
X155116Y223772*
X149560Y226967*
X146782Y228564*
X146949Y228661*
X147116Y228759*
X147449Y228953*
X166838*
X166713Y229022*
X166588Y229092*
X166463Y229161*
X166338Y229231*
X164046Y230550*
X161754Y231870*
X159463Y233189*
X157171Y234509*
X157366Y234620*
X157560Y234731*
X157754Y234842*
X157949Y234953*
X160727Y233356*
X163504Y231759*
X166282Y230161*
X169060Y228564*
X168727Y228370*
X168560Y228272*
X168393Y228175*
X169227Y240564D02*
X166685Y239092D01*
X164143Y237620*
X161602Y236148*
X159060Y234675*
X158866Y234787*
X158282Y235120*
X159532Y235842*
X160782Y236564*
X162032Y237287*
X163282Y238009*
X163310Y238022*
X163338Y238037*
X163366Y238050*
X163393Y238064*
X163380Y238092*
X163366Y238120*
X163352Y238148*
X163338Y238175*
X162032Y240439*
X158116Y247231*
Y248009*
X158449Y247814*
X158616Y247717*
X158782Y247620*
X161393Y243092*
X162699Y240828*
X164004Y238564*
X164019Y238537*
X164046Y238481*
X164060Y238453*
X164116Y238481*
X164143Y238495*
X164171Y238509*
X165421Y239231*
X166671Y239953*
X167921Y240675*
X169171Y241398*
Y240564*
X169227*
X558756Y88055D02*
X561089D01*
Y77610*
X558756*
Y88055*
Y77726D02*
X561089D01*
X558756Y77921D02*
X561089D01*
X558756Y78116D02*
X561089D01*
X558756Y78311D02*
X561089D01*
X558756Y78506D02*
X561089D01*
X558756Y78700D02*
X561089D01*
X558756Y78895D02*
X561089D01*
X558756Y79090D02*
X561089D01*
X558756Y79285D02*
X561089D01*
X558756Y79480D02*
X561089D01*
X558756Y79675D02*
X561089D01*
X558756Y79870D02*
X561089D01*
X558756Y80065D02*
X561089D01*
X558756Y80259D02*
X561089D01*
X558756Y80454D02*
X561089D01*
X558756Y80649D02*
X561089D01*
X558756Y80844D02*
X561089D01*
X558756Y81039D02*
X561089D01*
X558756Y81234D02*
X561089D01*
X558756Y81429D02*
X561089D01*
X558756Y81624D02*
X561089D01*
X558756Y81819D02*
X561089D01*
X558756Y82013D02*
X561089D01*
X558756Y82208D02*
X561089D01*
X558756Y82403D02*
X561089D01*
X558756Y82598D02*
X561089D01*
X558756Y82793D02*
X561089D01*
X558756Y82988D02*
X561089D01*
X558756Y83183D02*
X561089D01*
X558756Y83378D02*
X561089D01*
X558756Y83572D02*
X561089D01*
X558756Y83767D02*
X561089D01*
X558756Y83962D02*
X561089D01*
X558756Y84157D02*
X561089D01*
X558756Y84352D02*
X561089D01*
X558756Y84547D02*
X561089D01*
X558756Y84742D02*
X561089D01*
X558756Y84937D02*
X561089D01*
X558756Y85131D02*
X561089D01*
X558756Y85326D02*
X561089D01*
X558756Y85521D02*
X561089D01*
X558756Y85716D02*
X561089D01*
X558756Y85911D02*
X561089D01*
X558756Y86106D02*
X561089D01*
X558756Y86301D02*
X561089D01*
X558756Y86496D02*
X561089D01*
X558756Y86691D02*
X561089D01*
X558756Y86885D02*
X561089D01*
X558756Y87080D02*
X561089D01*
X558756Y87275D02*
X561089D01*
X558756Y87470D02*
X561089D01*
X558756Y87665D02*
X561089D01*
X558756Y87860D02*
X561089D01*
X558756Y91555D02*
X561089D01*
Y89221*
X558756*
Y91555*
Y89411D02*
X561089D01*
X558756Y89606D02*
X561089D01*
X558756Y89801D02*
X561089D01*
X558756Y89996D02*
X561089D01*
X558756Y90191D02*
X561089D01*
X558756Y90385D02*
X561089D01*
X558756Y90580D02*
X561089D01*
X558756Y90775D02*
X561089D01*
X558756Y90970D02*
X561089D01*
X558756Y91165D02*
X561089D01*
X558756Y91360D02*
X561089D01*
X566644Y84277D02*
X567339Y83221D01*
X568033Y82166*
X568728Y83221*
X569422Y84277*
X570450Y85833*
X571478Y87388*
Y77666*
X573811*
Y91555*
X571478*
X569756Y88944*
X568033Y86333*
X564533Y91555*
X562256*
Y77666*
X564533*
Y87388*
X566644Y84277*
X562256Y77846D02*
X564533D01*
X571478D02*
X573811D01*
X562256Y78041D02*
X564533D01*
X571478D02*
X573811D01*
X562256Y78236D02*
X564533D01*
X571478D02*
X573811D01*
X562256Y78431D02*
X564533D01*
X571478D02*
X573811D01*
X562256Y78626D02*
X564533D01*
X571478D02*
X573811D01*
X562256Y78820D02*
X564533D01*
X571478D02*
X573811D01*
X562256Y79015D02*
X564533D01*
X571478D02*
X573811D01*
X562256Y79210D02*
X564533D01*
X571478D02*
X573811D01*
X562256Y79405D02*
X564533D01*
X571478D02*
X573811D01*
X562256Y79600D02*
X564533D01*
X571478D02*
X573811D01*
X562256Y79795D02*
X564533D01*
X571478D02*
X573811D01*
X562256Y79990D02*
X564533D01*
X571478D02*
X573811D01*
X562256Y80185D02*
X564533D01*
X571478D02*
X573811D01*
X562256Y80380D02*
X564533D01*
X571478D02*
X573811D01*
X562256Y80574D02*
X564533D01*
X571478D02*
X573811D01*
X562256Y80769D02*
X564533D01*
X571478D02*
X573811D01*
X562256Y80964D02*
X564533D01*
X571478D02*
X573811D01*
X562256Y81159D02*
X564533D01*
X571478D02*
X573811D01*
X562256Y81354D02*
X564533D01*
X571478D02*
X573811D01*
X562256Y81549D02*
X564533D01*
X571478D02*
X573811D01*
X562256Y81744D02*
X564533D01*
X571478D02*
X573811D01*
X562256Y81939D02*
X564533D01*
X571478D02*
X573811D01*
X562256Y82133D02*
X564533D01*
X571478D02*
X573811D01*
X562256Y82328D02*
X564533D01*
X567926D02*
X568140D01*
X571478D02*
X573811D01*
X562256Y82523D02*
X564533D01*
X567798D02*
X568268D01*
X571478D02*
X573811D01*
X562256Y82718D02*
X564533D01*
X567670D02*
X568396D01*
X571478D02*
X573811D01*
X562256Y82913D02*
X564533D01*
X567541D02*
X568525D01*
X571478D02*
X573811D01*
X562256Y83108D02*
X564533D01*
X567413D02*
X568653D01*
X571478D02*
X573811D01*
X562256Y83303D02*
X564533D01*
X567285D02*
X568781D01*
X571478D02*
X573811D01*
X562256Y83498D02*
X564533D01*
X567157D02*
X568909D01*
X571478D02*
X573811D01*
X562256Y83693D02*
X564533D01*
X567029D02*
X569037D01*
X571478D02*
X573811D01*
X562256Y83887D02*
X564533D01*
X566900D02*
X569166D01*
X571478D02*
X573811D01*
X562256Y84082D02*
X564533D01*
X566772D02*
X569294D01*
X571478D02*
X573811D01*
X562256Y84277D02*
X564533D01*
X566644D02*
X569422D01*
X571478D02*
X573811D01*
X562256Y84472D02*
X564533D01*
X566512D02*
X569551D01*
X571478D02*
X573811D01*
X562256Y84667D02*
X564533D01*
X566380D02*
X569680D01*
X571478D02*
X573811D01*
X562256Y84862D02*
X564533D01*
X566247D02*
X569808D01*
X571478D02*
X573811D01*
X562256Y85057D02*
X564533D01*
X566115D02*
X569937D01*
X571478D02*
X573811D01*
X562256Y85252D02*
X564533D01*
X565983D02*
X570066D01*
X571478D02*
X573811D01*
X562256Y85446D02*
X564533D01*
X565851D02*
X570194D01*
X571478D02*
X573811D01*
X562256Y85641D02*
X564533D01*
X565719D02*
X570323D01*
X571478D02*
X573811D01*
X562256Y85836D02*
X564533D01*
X565586D02*
X570452D01*
X571478D02*
X573811D01*
X562256Y86031D02*
X564533D01*
X565454D02*
X570581D01*
X571478D02*
X573811D01*
X562256Y86226D02*
X564533D01*
X565322D02*
X570709D01*
X571478D02*
X573811D01*
X562256Y86421D02*
X564533D01*
X565189D02*
X567974D01*
X568091D02*
X570838D01*
X571478D02*
X573811D01*
X562256Y86616D02*
X564533D01*
X565057D02*
X567843D01*
X568220D02*
X570967D01*
X571478D02*
X573811D01*
X562256Y86811D02*
X564533D01*
X564925D02*
X567713D01*
X568348D02*
X571096D01*
X571478D02*
X573811D01*
X562256Y87006D02*
X564533D01*
X564793D02*
X567582D01*
X568477D02*
X571225D01*
X571478D02*
X573811D01*
X562256Y87200D02*
X564533D01*
X564661D02*
X567452D01*
X568606D02*
X571354D01*
X571478D02*
X573811D01*
X562256Y87395D02*
X567321D01*
X568734D02*
X573811D01*
X562256Y87590D02*
X567190D01*
X568863D02*
X573811D01*
X562256Y87785D02*
X567060D01*
X568991D02*
X573811D01*
X562256Y87980D02*
X566929D01*
X569120D02*
X573811D01*
X562256Y88175D02*
X566798D01*
X569248D02*
X573811D01*
X562256Y88370D02*
X566668D01*
X569377D02*
X573811D01*
X562256Y88565D02*
X566537D01*
X569506D02*
X573811D01*
X562256Y88759D02*
X566407D01*
X569634D02*
X573811D01*
X562256Y88954D02*
X566276D01*
X569763D02*
X573811D01*
X562256Y89149D02*
X566145D01*
X569891D02*
X573811D01*
X562256Y89344D02*
X566015D01*
X570020D02*
X573811D01*
X562256Y89539D02*
X565884D01*
X570148D02*
X573811D01*
X562256Y89734D02*
X565754D01*
X570277D02*
X573811D01*
X562256Y89929D02*
X565623D01*
X570405D02*
X573811D01*
X562256Y90124D02*
X565492D01*
X570534D02*
X573811D01*
X562256Y90319D02*
X565362D01*
X570662D02*
X573811D01*
X562256Y90513D02*
X565231D01*
X570791D02*
X573811D01*
X562256Y90708D02*
X565100D01*
X570919D02*
X573811D01*
X562256Y90903D02*
X564970D01*
X571048D02*
X573811D01*
X562256Y91098D02*
X564839D01*
X571176D02*
X573811D01*
X562256Y91293D02*
X564709D01*
X571305D02*
X573811D01*
X562256Y91488D02*
X564578D01*
X571433D02*
X573811D01*
X574980Y77719D02*
X577226D01*
X577850Y80090*
X581344*
X581969Y77719*
X584215*
X583092Y82337*
X576103*
X574980Y77719*
X577226*
X581969D02*
X584215D01*
X575027Y77914D02*
X577277D01*
X581917D02*
X584168D01*
X575074Y78109D02*
X577329D01*
X581866D02*
X584120D01*
X575122Y78304D02*
X577380D01*
X581815D02*
X584073D01*
X575169Y78498D02*
X577431D01*
X581763D02*
X584025D01*
X575217Y78693D02*
X577482D01*
X581712D02*
X583978D01*
X575264Y78888D02*
X577534D01*
X581661D02*
X583931D01*
X575311Y79083D02*
X577585D01*
X581609D02*
X583883D01*
X575359Y79278D02*
X577636D01*
X581558D02*
X583836D01*
X575406Y79473D02*
X577687D01*
X581507D02*
X583788D01*
X575454Y79668D02*
X577739D01*
X581456D02*
X583741D01*
X575501Y79863D02*
X577790D01*
X581404D02*
X583694D01*
X575548Y80057D02*
X577841D01*
X581353D02*
X583646D01*
X575596Y80252D02*
X583599D01*
X575643Y80447D02*
X583551D01*
X575691Y80642D02*
X583504D01*
X575738Y80837D02*
X583457D01*
X575785Y81032D02*
X583409D01*
X575833Y81227D02*
X583362D01*
X575880Y81422D02*
X583314D01*
X575928Y81617D02*
X583267D01*
X575975Y81811D02*
X583219D01*
X576022Y82006D02*
X583172D01*
X576070Y82201D02*
X583125D01*
X578422Y82277D02*
X579006Y84583D01*
X579589Y86888*
X580756Y82277*
X578422*
X582947Y227989D02*
X584114Y230017D01*
X585280Y232045*
X586447Y234073*
X587614Y236100*
X587628Y236128*
X587642Y236156*
X587669Y236212*
X587642Y236226*
X587614Y236239*
X587586Y236253*
X587558Y236267*
X585253Y237600*
X584100Y238267*
X582947Y238934*
Y239823*
X584197Y239100*
X585447Y238378*
X586697Y237656*
X587947Y236934*
X587975Y236920*
X588003Y236906*
X588030Y236892*
X588058Y236878*
X588072Y236906*
X588086Y236934*
X588100Y236962*
X588114Y236989*
X589419Y239253*
X590725Y241517*
X592030Y243781*
X593336Y246045*
X593669Y246239*
X593836Y246337*
X594003Y246434*
Y245656*
X590086Y238865*
X588780Y236600*
X588767Y236573*
X588753Y236545*
X588739Y236517*
X588725Y236489*
X588753Y236476*
X588780Y236462*
X588808Y236448*
X588836Y236434*
X590086Y235712*
X591336Y234989*
X592586Y234267*
X593836Y233545*
X593253Y233212*
X593058Y233100*
X591906Y233767*
X589600Y235100*
X588447Y235767*
X588419Y235781*
X588392Y235795*
X588364Y235809*
X588336Y235823*
X588322Y235795*
X588308Y235767*
X588294Y235739*
X588280Y235712*
X585947Y231656*
X584780Y229628*
X583614Y227600*
X583447Y227503*
X583280Y227406*
X583114Y227309*
X582947Y227212*
Y227989*
X583092Y82337D02*
X580720Y91572D01*
X578474*
X576103Y82337*
X578349*
X579597Y86954*
X580720Y82337*
X583092*
X576103D02*
X578349D01*
X580720D02*
X583092D01*
X576153Y82531D02*
X578402D01*
X580673D02*
X583042D01*
X576203Y82726D02*
X578455D01*
X580626D02*
X582992D01*
X576253Y82921D02*
X578507D01*
X580578D02*
X582942D01*
X576303Y83116D02*
X578560D01*
X580531D02*
X582892D01*
X576353Y83311D02*
X578613D01*
X580483D02*
X582842D01*
X576403Y83506D02*
X578665D01*
X580436D02*
X582791D01*
X576453Y83701D02*
X578718D01*
X580389D02*
X582741D01*
X576503Y83896D02*
X578770D01*
X580341D02*
X582691D01*
X576553Y84091D02*
X578823D01*
X580294D02*
X582641D01*
X576603Y84285D02*
X578876D01*
X580246D02*
X582591D01*
X576653Y84480D02*
X578929D01*
X580199D02*
X582541D01*
X576703Y84675D02*
X578981D01*
X580152D02*
X582491D01*
X576753Y84870D02*
X579034D01*
X580104D02*
X582441D01*
X576803Y85065D02*
X579087D01*
X580057D02*
X582391D01*
X576853Y85260D02*
X579139D01*
X580009D02*
X582341D01*
X576904Y85455D02*
X579192D01*
X579962D02*
X582291D01*
X576954Y85650D02*
X579244D01*
X579915D02*
X582241D01*
X577004Y85844D02*
X579297D01*
X579867D02*
X582191D01*
X577054Y86039D02*
X579350D01*
X579820D02*
X582141D01*
X577104Y86234D02*
X579403D01*
X579772D02*
X582091D01*
X577154Y86429D02*
X579455D01*
X579725D02*
X582041D01*
X577204Y86624D02*
X579508D01*
X579678D02*
X581991D01*
X577254Y86819D02*
X579561D01*
X579630D02*
X581941D01*
X577304Y87014D02*
X581891D01*
X577354Y87209D02*
X581841D01*
X577404Y87404D02*
X581791D01*
X577454Y87598D02*
X581741D01*
X577504Y87793D02*
X581691D01*
X577554Y87988D02*
X581641D01*
X577604Y88183D02*
X581591D01*
X577654Y88378D02*
X581541D01*
X577704Y88573D02*
X581491D01*
X577754Y88768D02*
X581441D01*
X577804Y88963D02*
X581391D01*
X577854Y89157D02*
X581341D01*
X577904Y89352D02*
X581291D01*
X577954Y89547D02*
X581240D01*
X578004Y89742D02*
X581190D01*
X578054Y89937D02*
X581140D01*
X578104Y90132D02*
X581090D01*
X578154Y90327D02*
X581040D01*
X578204Y90522D02*
X580990D01*
X578254Y90717D02*
X580940D01*
X578304Y90911D02*
X580890D01*
X578354Y91106D02*
X580840D01*
X578404Y91301D02*
X580790D01*
X578454Y91496D02*
X580740D01*
X586461Y82337D02*
X586464Y82551D01*
X586491Y82763*
X586541Y82971*
X586614Y83172*
X586709Y83364*
X586825Y83544*
X586961Y83709*
X587460Y84209*
X586461Y86206*
Y87079*
X586518Y87371*
X586599Y87657*
X586706Y87935*
X586836Y88202*
X587002Y88382*
X587183Y88547*
X587378Y88696*
X587585Y88826*
X587821Y88952*
X588067Y89057*
X588322Y89141*
X588583Y89201*
X589332*
X590081Y88951*
X590580Y88577*
X590954Y88327*
X591125Y88272*
X591302Y88244*
X591481*
X591657Y88272*
X591828Y88327*
X592327Y88702*
X592403Y88924*
X592448Y89154*
X592464Y89388*
X592448Y89622*
X592403Y89852*
X592327Y90074*
X592131Y90305*
X591920Y90520*
X591695Y90721*
X591456Y90906*
X591204Y91073*
X590206Y91447*
X589992Y91507*
X589774Y91548*
X589554Y91570*
X589332Y91572*
X588458*
X587460Y91322*
X586711Y90948*
X585962Y90449*
X585338Y89825*
X584839Y89076*
X584465Y88202*
X584370Y87962*
X584296Y87714*
X584244Y87461*
X584215Y87204*
Y82337*
X586461*
X584215D02*
X586461D01*
X584215Y82531D02*
X586463D01*
X584215Y82726D02*
X586484D01*
X584215Y82921D02*
X586526D01*
X584215Y83116D02*
X586591D01*
X584215Y83311D02*
X586680D01*
X584215Y83506D02*
X586798D01*
X584215Y83701D02*
X586953D01*
X584215Y83896D02*
X587147D01*
X584215Y84091D02*
X587342D01*
X584215Y84285D02*
X587421D01*
X584215Y84480D02*
X587324D01*
X584215Y84675D02*
X587226D01*
X584215Y84870D02*
X587129D01*
X584215Y85065D02*
X587031D01*
X584215Y85260D02*
X586934D01*
X584215Y85455D02*
X586837D01*
X584215Y85650D02*
X586739D01*
X584215Y85844D02*
X586642D01*
X584215Y86039D02*
X586544D01*
X584215Y86234D02*
X586461D01*
X584215Y86429D02*
X586461D01*
X584215Y86624D02*
X586461D01*
X584215Y86819D02*
X586461D01*
X584215Y87014D02*
X586461D01*
X584215Y87209D02*
X586483D01*
X584236Y87404D02*
X586526D01*
X584270Y87598D02*
X586581D01*
X584317Y87793D02*
X586648D01*
X584379Y87988D02*
X586730D01*
X584456Y88183D02*
X586826D01*
X584540Y88378D02*
X586997D01*
X590878D02*
X591896D01*
X584623Y88573D02*
X587214D01*
X590586D02*
X592156D01*
X584707Y88768D02*
X587487D01*
X590325D02*
X592353D01*
X584791Y88963D02*
X587843D01*
X590046D02*
X592413D01*
X584893Y89157D02*
X588387D01*
X589462D02*
X592449D01*
X585023Y89352D02*
X592464D01*
X585153Y89547D02*
X592457D01*
X585283Y89742D02*
X592428D01*
X585450Y89937D02*
X592378D01*
X585645Y90132D02*
X592281D01*
X585840Y90327D02*
X592111D01*
X586071Y90522D02*
X591919D01*
X586364Y90717D02*
X591700D01*
X586656Y90911D02*
X591447D01*
X587028Y91106D02*
X591115D01*
X587417Y91301D02*
X590595D01*
X588154Y91496D02*
X590037D01*
X586461Y82337D02*
X584215D01*
X584465Y80964*
X584964Y79841*
X585713Y78842*
X586461Y78093*
X586760Y77959*
X587069Y77852*
X587386Y77771*
X587709Y77719*
X588708Y77594*
X589457*
X589811Y77642*
X590160Y77721*
X590500Y77830*
X590830Y77969*
X591108Y78098*
X591374Y78252*
X591625Y78428*
X591860Y78625*
X592078Y78842*
X592951Y79965*
X593450Y81463*
X593495Y81805*
X593510Y82149*
X593495Y82494*
X593450Y82836*
X593418Y83144*
X593364Y83450*
X593289Y83751*
X593193Y84046*
X593076Y84333*
X592922Y84607*
X592745Y84865*
X592546Y85108*
X592327Y85332*
X591578Y86081*
X590580Y86580*
X589581Y86830*
X588333*
X587085Y86580*
X586461Y86206*
X587460Y84209*
X587601Y84324*
X587756Y84420*
X587922Y84495*
X588096Y84548*
X588276Y84578*
X588458Y84583*
X589332*
X589597Y84491*
X589853Y84377*
X590098Y84241*
X590330Y84084*
X590830Y83460*
X591079Y82836*
X591123Y82588*
X591145Y82338*
Y82086*
X591123Y81836*
X591079Y81588*
X590830Y81089*
X590755Y80903*
X590653Y80731*
X590525Y80578*
X590374Y80446*
X590206Y80340*
X589457Y80090*
X589235Y80015*
X589005Y79969*
X588770Y79954*
X588536Y79969*
X588306Y80015*
X588084Y80090*
X587210Y80589*
X587034Y80760*
X586878Y80950*
X586745Y81156*
X586635Y81375*
X586550Y81605*
X586492Y81843*
X586461Y82087*
Y82337*
X588185Y77659D02*
X589900D01*
X587060Y77854D02*
X590564D01*
X586552Y78049D02*
X591010D01*
X586311Y78244D02*
X591361D01*
X586116Y78439D02*
X591640D01*
X585921Y78634D02*
X591870D01*
X585726Y78829D02*
X592065D01*
X585576Y79024D02*
X592219D01*
X585430Y79219D02*
X592370D01*
X585284Y79413D02*
X592522D01*
X585138Y79608D02*
X592674D01*
X584992Y79803D02*
X592825D01*
X584894Y79998D02*
X588374D01*
X589167D02*
X592962D01*
X584807Y80193D02*
X587904D01*
X589765D02*
X593027D01*
X584720Y80388D02*
X587563D01*
X590289D02*
X593092D01*
X584634Y80583D02*
X587222D01*
X590530D02*
X593157D01*
X584547Y80778D02*
X587019D01*
X590684D02*
X593222D01*
X584463Y80972D02*
X586862D01*
X590787D02*
X593287D01*
X584428Y81167D02*
X586738D01*
X590869D02*
X593352D01*
X584392Y81362D02*
X586641D01*
X590966D02*
X593417D01*
X584357Y81557D02*
X586566D01*
X591064D02*
X593466D01*
X584321Y81752D02*
X586511D01*
X591111D02*
X593491D01*
X584286Y81947D02*
X586476D01*
X591135D02*
X593505D01*
X584250Y82142D02*
X586461D01*
X591148D02*
X593510D01*
X591145Y82337D02*
X593506D01*
X591130Y82531D02*
X593492D01*
X591101Y82726D02*
X593468D01*
X591045Y82921D02*
X593444D01*
X590967Y83116D02*
X593422D01*
X590889Y83311D02*
X593391D01*
X590793Y83506D02*
X593352D01*
X590637Y83701D02*
X593303D01*
X590481Y83896D02*
X593244D01*
X590321Y84091D02*
X593176D01*
X587422Y84285D02*
X587549D01*
X590023D02*
X593097D01*
X587324Y84480D02*
X587884D01*
X589625D02*
X592997D01*
X587227Y84675D02*
X592879D01*
X587129Y84870D02*
X592742D01*
X587032Y85065D02*
X592584D01*
X586934Y85260D02*
X592402D01*
X586837Y85455D02*
X592204D01*
X586739Y85650D02*
X592009D01*
X586642Y85844D02*
X591815D01*
X586544Y86039D02*
X591620D01*
X586509Y86234D02*
X591271D01*
X586834Y86429D02*
X590881D01*
X587306Y86624D02*
X590404D01*
X588280Y86819D02*
X589624D01*
X594220Y247371D02*
Y246497D01*
X593970Y246248*
X593222Y245998*
X587980Y236887*
X582863Y239883*
Y238884*
X587606Y236139*
X582863Y228026*
Y227278*
X583737Y227777*
X588354Y235889*
X603081Y227402*
X583737*
X582988Y227028*
X594220Y220538*
Y219665*
X582114Y226529*
Y240507*
X594220Y247371*
X594162Y219698D02*
X594220D01*
X593818Y219893D02*
X594220D01*
X593474Y220087D02*
X594220D01*
X593131Y220282D02*
X594220D01*
X592787Y220477D02*
X594220D01*
X592443Y220672D02*
X593989D01*
X592100Y220867D02*
X593651D01*
X591756Y221062D02*
X593314D01*
X591412Y221257D02*
X592976D01*
X591069Y221452D02*
X592639D01*
X590725Y221646D02*
X592302D01*
X590381Y221841D02*
X591965D01*
X590037Y222036D02*
X591627D01*
X589694Y222231D02*
X591290D01*
X589350Y222426D02*
X590953D01*
X589006Y222621D02*
X590615D01*
X588663Y222816D02*
X590278D01*
X588319Y223011D02*
X589941D01*
X587975Y223206D02*
X589604D01*
X587631Y223400D02*
X589266D01*
X587288Y223595D02*
X588929D01*
X586944Y223790D02*
X588592D01*
X586600Y223985D02*
X588254D01*
X586257Y224180D02*
X587917D01*
X585913Y224375D02*
X587580D01*
X585569Y224570D02*
X587243D01*
X585226Y224765D02*
X586905D01*
X584882Y224959D02*
X586568D01*
X584538Y225154D02*
X586231D01*
X584194Y225349D02*
X585893D01*
X583851Y225544D02*
X585556D01*
X583507Y225739D02*
X585219D01*
X583163Y225934D02*
X584881D01*
X582820Y226129D02*
X584544D01*
X582476Y226324D02*
X584207D01*
X582132Y226519D02*
X583870D01*
X582114Y226713D02*
X583532D01*
X582114Y226908D02*
X583195D01*
X582114Y227103D02*
X583138D01*
X582114Y227298D02*
X582863D01*
X582899D02*
X583528D01*
X582114Y227493D02*
X582863D01*
X583240D02*
X602924D01*
X582114Y227688D02*
X582863D01*
X583581D02*
X602586D01*
X582114Y227883D02*
X582863D01*
X583797D02*
X602248D01*
X582114Y228078D02*
X582893D01*
X583908D02*
X601909D01*
X582114Y228272D02*
X583007D01*
X584019D02*
X601571D01*
X582114Y228467D02*
X583121D01*
X584130D02*
X601233D01*
X582114Y228662D02*
X583235D01*
X584241D02*
X600895D01*
X582114Y228857D02*
X583349D01*
X584352D02*
X600557D01*
X582114Y229052D02*
X583463D01*
X584463D02*
X600219D01*
X582114Y229247D02*
X583576D01*
X584574D02*
X599880D01*
X582114Y229442D02*
X583691D01*
X584684D02*
X599542D01*
X582114Y229637D02*
X583804D01*
X584795D02*
X599204D01*
X582114Y229831D02*
X583918D01*
X584906D02*
X598866D01*
X582114Y230026D02*
X584032D01*
X585017D02*
X598528D01*
X582114Y230221D02*
X584146D01*
X585128D02*
X598189D01*
X582114Y230416D02*
X584260D01*
X585239D02*
X597851D01*
X582114Y230611D02*
X584374D01*
X585350D02*
X597513D01*
X582114Y230806D02*
X584488D01*
X585461D02*
X597175D01*
X582114Y231001D02*
X584602D01*
X585572D02*
X596837D01*
X582114Y231196D02*
X584716D01*
X585683D02*
X596498D01*
X582114Y231391D02*
X584830D01*
X585794D02*
X596160D01*
X582114Y231585D02*
X584944D01*
X585905D02*
X595822D01*
X582114Y231780D02*
X585057D01*
X586016D02*
X595484D01*
X582114Y231975D02*
X585172D01*
X586126D02*
X595146D01*
X582114Y232170D02*
X585285D01*
X586237D02*
X594808D01*
X582114Y232365D02*
X585399D01*
X586348D02*
X594470D01*
X582114Y232560D02*
X585513D01*
X586459D02*
X594131D01*
X582114Y232755D02*
X585627D01*
X586570D02*
X593793D01*
X582114Y232950D02*
X585741D01*
X586681D02*
X593455D01*
X582114Y233144D02*
X585855D01*
X586792D02*
X593117D01*
X582114Y233339D02*
X585969D01*
X586903D02*
X592779D01*
X582114Y233534D02*
X586083D01*
X587014D02*
X592441D01*
X582114Y233729D02*
X586197D01*
X587125D02*
X592102D01*
X582114Y233924D02*
X586311D01*
X587236D02*
X591764D01*
X582114Y234119D02*
X586425D01*
X587347D02*
X591426D01*
X582114Y234314D02*
X586539D01*
X587458D02*
X591088D01*
X582114Y234509D02*
X586653D01*
X587569D02*
X590750D01*
X582114Y234704D02*
X586767D01*
X587680D02*
X590411D01*
X582114Y234898D02*
X586880D01*
X587791D02*
X590073D01*
X582114Y235093D02*
X586994D01*
X587902D02*
X589735D01*
X582114Y235288D02*
X587108D01*
X588012D02*
X589397D01*
X582114Y235483D02*
X587222D01*
X588123D02*
X589059D01*
X582114Y235678D02*
X587336D01*
X588234D02*
X588720D01*
X582114Y235873D02*
X587450D01*
X588345D02*
X588382D01*
X582114Y236068D02*
X587564D01*
X582114Y236263D02*
X587391D01*
X582114Y236457D02*
X587055D01*
X582114Y236652D02*
X586718D01*
X582114Y236847D02*
X586381D01*
X582114Y237042D02*
X586045D01*
X587716D02*
X588069D01*
X582114Y237237D02*
X585708D01*
X587383D02*
X588181D01*
X582114Y237432D02*
X585372D01*
X587050D02*
X588293D01*
X582114Y237627D02*
X585035D01*
X586717D02*
X588405D01*
X582114Y237822D02*
X584698D01*
X586384D02*
X588517D01*
X582114Y238017D02*
X584362D01*
X586051D02*
X588630D01*
X582114Y238211D02*
X584025D01*
X585718D02*
X588742D01*
X582114Y238406D02*
X583689D01*
X585385D02*
X588854D01*
X582114Y238601D02*
X583352D01*
X585052D02*
X588966D01*
X582114Y238796D02*
X583015D01*
X584719D02*
X589078D01*
X582114Y238991D02*
X582863D01*
X584386D02*
X589190D01*
X582114Y239186D02*
X582863D01*
X584054D02*
X589302D01*
X582114Y239381D02*
X582863D01*
X583720D02*
X589415D01*
X582114Y239576D02*
X582863D01*
X583387D02*
X589526D01*
X582114Y239770D02*
X582863D01*
X583055D02*
X589639D01*
X582114Y239965D02*
X589751D01*
X582114Y240160D02*
X589863D01*
X582114Y240355D02*
X589975D01*
X582191Y240550D02*
X590087D01*
X582534Y240745D02*
X590199D01*
X582878Y240940D02*
X590311D01*
X583222Y241135D02*
X590424D01*
X583565Y241330D02*
X590536D01*
X583909Y241524D02*
X590648D01*
X584253Y241719D02*
X590760D01*
X584596Y241914D02*
X590872D01*
X584940Y242109D02*
X590984D01*
X585284Y242304D02*
X591096D01*
X585628Y242499D02*
X591208D01*
X585971Y242694D02*
X591320D01*
X586315Y242889D02*
X591433D01*
X586659Y243083D02*
X591545D01*
X587002Y243278D02*
X591657D01*
X587346Y243473D02*
X591769D01*
X587690Y243668D02*
X591881D01*
X588033Y243863D02*
X591993D01*
X588377Y244058D02*
X592106D01*
X588721Y244253D02*
X592218D01*
X589065Y244448D02*
X592330D01*
X589408Y244643D02*
X592442D01*
X589752Y244837D02*
X592554D01*
X590096Y245032D02*
X592666D01*
X590439Y245227D02*
X592778D01*
X590783Y245422D02*
X592890D01*
X591127Y245617D02*
X593002D01*
X591470Y245812D02*
X593115D01*
X591814Y246007D02*
X593248D01*
X592158Y246202D02*
X593832D01*
X592502Y246396D02*
X594119D01*
X592845Y246591D02*
X594220D01*
X593189Y246786D02*
X594220D01*
X593533Y246981D02*
X594220D01*
X593876Y247176D02*
X594220D01*
Y247371D02*
X606201Y240507D01*
Y226529*
X594220Y219665*
Y220663*
X594844Y221037*
X585234Y226654*
X604579*
X605328Y227028*
X594220Y233393*
X593346Y232894*
X593097Y233143*
X593846Y233643*
X588729Y236513*
X593970Y245624*
Y246372*
X594220*
Y245748*
X599587Y236638*
X594470Y233518*
X595343Y233019*
X605452Y239009*
Y239883*
X600335Y236887*
X594969Y245998*
X594220Y246497*
Y247371*
Y219698D02*
X594278D01*
X594220Y219893D02*
X594618D01*
X594220Y220087D02*
X594958D01*
X594220Y220282D02*
X595298D01*
X594220Y220477D02*
X595639D01*
X594235Y220672D02*
X595979D01*
X594560Y220867D02*
X596319D01*
X594802Y221062D02*
X596659D01*
X594469Y221257D02*
X596999D01*
X594135Y221452D02*
X597339D01*
X593802Y221646D02*
X597680D01*
X593469Y221841D02*
X598020D01*
X593135Y222036D02*
X598360D01*
X592802Y222231D02*
X598700D01*
X592468Y222426D02*
X599040D01*
X592135Y222621D02*
X599380D01*
X591801Y222816D02*
X599720D01*
X591468Y223011D02*
X600061D01*
X591134Y223206D02*
X600401D01*
X590801Y223400D02*
X600741D01*
X590467Y223595D02*
X601081D01*
X590134Y223790D02*
X601421D01*
X589800Y223985D02*
X601761D01*
X589467Y224180D02*
X602102D01*
X589133Y224375D02*
X602442D01*
X588800Y224570D02*
X602782D01*
X588467Y224765D02*
X603122D01*
X588133Y224959D02*
X603462D01*
X587800Y225154D02*
X603802D01*
X587466Y225349D02*
X604143D01*
X587133Y225544D02*
X604483D01*
X586799Y225739D02*
X604823D01*
X586466Y225934D02*
X605163D01*
X586132Y226129D02*
X605503D01*
X585799Y226324D02*
X605843D01*
X585465Y226519D02*
X606183D01*
X604698Y226713D02*
X606201D01*
X605088Y226908D02*
X606201D01*
X605196Y227103D02*
X606201D01*
X604856Y227298D02*
X606201D01*
X604516Y227493D02*
X606201D01*
X604176Y227688D02*
X606201D01*
X603836Y227883D02*
X606201D01*
X603496Y228078D02*
X606201D01*
X603156Y228272D02*
X606201D01*
X602816Y228467D02*
X606201D01*
X602476Y228662D02*
X606201D01*
X602135Y228857D02*
X606201D01*
X601795Y229052D02*
X606201D01*
X601456Y229247D02*
X606201D01*
X601115Y229442D02*
X606201D01*
X600775Y229637D02*
X606201D01*
X600435Y229831D02*
X606201D01*
X600095Y230026D02*
X606201D01*
X599755Y230221D02*
X606201D01*
X599415Y230416D02*
X606201D01*
X599075Y230611D02*
X606201D01*
X598735Y230806D02*
X606201D01*
X598394Y231001D02*
X606201D01*
X598054Y231196D02*
X606201D01*
X597715Y231391D02*
X606201D01*
X597374Y231585D02*
X606201D01*
X597034Y231780D02*
X606201D01*
X596694Y231975D02*
X606201D01*
X596354Y232170D02*
X606201D01*
X596014Y232365D02*
X606201D01*
X595674Y232560D02*
X606201D01*
X595334Y232755D02*
X606201D01*
X593291Y232950D02*
X593444D01*
X594994D02*
X606201D01*
X593099Y233144D02*
X593785D01*
X594654D02*
X595123D01*
X595556D02*
X606201D01*
X593391Y233339D02*
X594126D01*
X594313D02*
X594782D01*
X595885D02*
X606201D01*
X593683Y233534D02*
X594497D01*
X596214D02*
X606201D01*
X593691Y233729D02*
X594817D01*
X596543D02*
X606201D01*
X593344Y233924D02*
X595136D01*
X596871D02*
X606201D01*
X592996Y234119D02*
X595456D01*
X597200D02*
X606201D01*
X592649Y234314D02*
X595775D01*
X597529D02*
X606201D01*
X592302Y234509D02*
X596095D01*
X597858D02*
X606201D01*
X591954Y234704D02*
X596415D01*
X598187D02*
X606201D01*
X591607Y234898D02*
X596734D01*
X598516D02*
X606201D01*
X591259Y235093D02*
X597054D01*
X598844D02*
X606201D01*
X590912Y235288D02*
X597373D01*
X599173D02*
X606201D01*
X590565Y235483D02*
X597693D01*
X599502D02*
X606201D01*
X590217Y235678D02*
X598013D01*
X599831D02*
X606201D01*
X589870Y235873D02*
X598332D01*
X600160D02*
X606201D01*
X589522Y236068D02*
X598652D01*
X600489D02*
X606201D01*
X589175Y236263D02*
X598971D01*
X600818D02*
X606201D01*
X588828Y236457D02*
X599291D01*
X601146D02*
X606201D01*
X588809Y236652D02*
X599578D01*
X601476D02*
X606201D01*
X588921Y236847D02*
X599463D01*
X601804D02*
X606201D01*
X589033Y237042D02*
X599348D01*
X600244D02*
X600600D01*
X602133D02*
X606201D01*
X589145Y237237D02*
X599233D01*
X600130D02*
X600933D01*
X602462D02*
X606201D01*
X589257Y237432D02*
X599119D01*
X600015D02*
X601266D01*
X602791D02*
X606201D01*
X589370Y237627D02*
X599004D01*
X599900D02*
X601598D01*
X603120D02*
X606201D01*
X589481Y237822D02*
X598889D01*
X599785D02*
X601931D01*
X603449D02*
X606201D01*
X589594Y238017D02*
X598774D01*
X599670D02*
X602264D01*
X603778D02*
X606201D01*
X589706Y238211D02*
X598660D01*
X599556D02*
X602597D01*
X604106D02*
X606201D01*
X589818Y238406D02*
X598545D01*
X599441D02*
X602930D01*
X604435D02*
X606201D01*
X589930Y238601D02*
X598430D01*
X599326D02*
X603263D01*
X604764D02*
X606201D01*
X590042Y238796D02*
X598315D01*
X599211D02*
X603596D01*
X605093D02*
X606201D01*
X590154Y238991D02*
X598200D01*
X599096D02*
X603929D01*
X605422D02*
X606201D01*
X590267Y239186D02*
X598086D01*
X598981D02*
X604262D01*
X605452D02*
X606201D01*
X590379Y239381D02*
X597971D01*
X598867D02*
X604595D01*
X605452D02*
X606201D01*
X590491Y239576D02*
X597856D01*
X598752D02*
X604928D01*
X605452D02*
X606201D01*
X590603Y239770D02*
X597741D01*
X598637D02*
X605261D01*
X605452D02*
X606201D01*
X590715Y239965D02*
X597626D01*
X598522D02*
X606201D01*
X590827Y240160D02*
X597512D01*
X598407D02*
X606201D01*
X590939Y240355D02*
X597397D01*
X598293D02*
X606201D01*
X591052Y240550D02*
X597282D01*
X598178D02*
X606126D01*
X591163Y240745D02*
X597167D01*
X598063D02*
X605785D01*
X591276Y240940D02*
X597053D01*
X597948D02*
X605445D01*
X591388Y241135D02*
X596938D01*
X597833D02*
X605105D01*
X591500Y241330D02*
X596823D01*
X597719D02*
X604765D01*
X591612Y241524D02*
X596708D01*
X597604D02*
X604425D01*
X591724Y241719D02*
X596593D01*
X597489D02*
X604085D01*
X591836Y241914D02*
X596479D01*
X597374D02*
X603744D01*
X591948Y242109D02*
X596364D01*
X597260D02*
X603404D01*
X592061Y242304D02*
X596249D01*
X597145D02*
X603064D01*
X592173Y242499D02*
X596134D01*
X597030D02*
X602724D01*
X592285Y242694D02*
X596019D01*
X596915D02*
X602384D01*
X592397Y242889D02*
X595905D01*
X596800D02*
X602044D01*
X592509Y243083D02*
X595790D01*
X596686D02*
X601704D01*
X592621Y243278D02*
X595675D01*
X596571D02*
X601363D01*
X592733Y243473D02*
X595560D01*
X596456D02*
X601023D01*
X592845Y243668D02*
X595445D01*
X596341D02*
X600683D01*
X592957Y243863D02*
X595331D01*
X596226D02*
X600343D01*
X593070Y244058D02*
X595216D01*
X596112D02*
X600003D01*
X593182Y244253D02*
X595101D01*
X595997D02*
X599663D01*
X593294Y244448D02*
X594986D01*
X595882D02*
X599322D01*
X593406Y244643D02*
X594872D01*
X595767D02*
X598982D01*
X593518Y244837D02*
X594757D01*
X595652D02*
X598642D01*
X593630Y245032D02*
X594642D01*
X595538D02*
X598302D01*
X593743Y245227D02*
X594527D01*
X595423D02*
X597962D01*
X593854Y245422D02*
X594412D01*
X595308D02*
X597622D01*
X593967Y245617D02*
X594298D01*
X595193D02*
X597281D01*
X593970Y245812D02*
X594220D01*
X595079D02*
X596941D01*
X593970Y246007D02*
X594220D01*
X594956D02*
X596601D01*
X593970Y246202D02*
X594220D01*
X594663D02*
X596261D01*
X594371Y246396D02*
X595921D01*
X594220Y246591D02*
X595581D01*
X594220Y246786D02*
X595241D01*
X594220Y246981D02*
X594900D01*
X594220Y247176D02*
X594560D01*
X594644Y88055D02*
X596978D01*
Y77610*
X594644*
Y88055*
Y77726D02*
X596978D01*
X594644Y77921D02*
X596978D01*
X594644Y78116D02*
X596978D01*
X594644Y78311D02*
X596978D01*
X594644Y78506D02*
X596978D01*
X594644Y78700D02*
X596978D01*
X594644Y78895D02*
X596978D01*
X594644Y79090D02*
X596978D01*
X594644Y79285D02*
X596978D01*
X594644Y79480D02*
X596978D01*
X594644Y79675D02*
X596978D01*
X594644Y79870D02*
X596978D01*
X594644Y80065D02*
X596978D01*
X594644Y80259D02*
X596978D01*
X594644Y80454D02*
X596978D01*
X594644Y80649D02*
X596978D01*
X594644Y80844D02*
X596978D01*
X594644Y81039D02*
X596978D01*
X594644Y81234D02*
X596978D01*
X594644Y81429D02*
X596978D01*
X594644Y81624D02*
X596978D01*
X594644Y81819D02*
X596978D01*
X594644Y82013D02*
X596978D01*
X594644Y82208D02*
X596978D01*
X594644Y82403D02*
X596978D01*
X594644Y82598D02*
X596978D01*
X594644Y82793D02*
X596978D01*
X594644Y82988D02*
X596978D01*
X594644Y83183D02*
X596978D01*
X594644Y83378D02*
X596978D01*
X594644Y83572D02*
X596978D01*
X594644Y83767D02*
X596978D01*
X594644Y83962D02*
X596978D01*
X594644Y84157D02*
X596978D01*
X594644Y84352D02*
X596978D01*
X594644Y84547D02*
X596978D01*
X594644Y84742D02*
X596978D01*
X594644Y84937D02*
X596978D01*
X594644Y85131D02*
X596978D01*
X594644Y85326D02*
X596978D01*
X594644Y85521D02*
X596978D01*
X594644Y85716D02*
X596978D01*
X594644Y85911D02*
X596978D01*
X594644Y86106D02*
X596978D01*
X594644Y86301D02*
X596978D01*
X594644Y86496D02*
X596978D01*
X594644Y86691D02*
X596978D01*
X594644Y86885D02*
X596978D01*
X594644Y87080D02*
X596978D01*
X594644Y87275D02*
X596978D01*
X594644Y87470D02*
X596978D01*
X594644Y87665D02*
X596978D01*
X594644Y87860D02*
X596978D01*
X594644Y91555D02*
X596978D01*
Y89221*
X594644*
Y91555*
Y89411D02*
X596978D01*
X594644Y89606D02*
X596978D01*
X594644Y89801D02*
X596978D01*
X594644Y89996D02*
X596978D01*
X594644Y90191D02*
X596978D01*
X594644Y90385D02*
X596978D01*
X594644Y90580D02*
X596978D01*
X594644Y90775D02*
X596978D01*
X594644Y90970D02*
X596978D01*
X594644Y91165D02*
X596978D01*
X594644Y91360D02*
X596978D01*
X600422Y86555D02*
X605033Y77666D01*
X607367*
Y91555*
X605033*
Y82666*
X600422Y91555*
X598089*
Y77666*
X600422*
Y86555*
X598089Y77785D02*
X600422D01*
X604971D02*
X607367D01*
X598089Y77980D02*
X600422D01*
X604870D02*
X607367D01*
X598089Y78175D02*
X600422D01*
X604769D02*
X607367D01*
X598089Y78370D02*
X600422D01*
X604668D02*
X607367D01*
X598089Y78565D02*
X600422D01*
X604567D02*
X607367D01*
X598089Y78759D02*
X600422D01*
X604466D02*
X607367D01*
X598089Y78954D02*
X600422D01*
X604365D02*
X607367D01*
X598089Y79149D02*
X600422D01*
X604263D02*
X607367D01*
X598089Y79344D02*
X600422D01*
X604163D02*
X607367D01*
X598089Y79539D02*
X600422D01*
X604061D02*
X607367D01*
X598089Y79734D02*
X600422D01*
X603960D02*
X607367D01*
X598089Y79929D02*
X600422D01*
X603859D02*
X607367D01*
X598089Y80124D02*
X600422D01*
X603758D02*
X607367D01*
X598089Y80319D02*
X600422D01*
X603657D02*
X607367D01*
X598089Y80513D02*
X600422D01*
X603556D02*
X607367D01*
X598089Y80708D02*
X600422D01*
X603455D02*
X607367D01*
X598089Y80903D02*
X600422D01*
X603354D02*
X607367D01*
X598089Y81098D02*
X600422D01*
X603253D02*
X607367D01*
X598089Y81293D02*
X600422D01*
X603152D02*
X607367D01*
X598089Y81488D02*
X600422D01*
X603050D02*
X607367D01*
X598089Y81683D02*
X600422D01*
X602949D02*
X607367D01*
X598089Y81878D02*
X600422D01*
X602848D02*
X607367D01*
X598089Y82072D02*
X600422D01*
X602747D02*
X607367D01*
X598089Y82267D02*
X600422D01*
X602646D02*
X607367D01*
X598089Y82462D02*
X600422D01*
X602545D02*
X607367D01*
X598089Y82657D02*
X600422D01*
X602444D02*
X607367D01*
X598089Y82852D02*
X600422D01*
X602343D02*
X604937D01*
X605033D02*
X607367D01*
X598089Y83047D02*
X600422D01*
X602242D02*
X604835D01*
X605033D02*
X607367D01*
X598089Y83242D02*
X600422D01*
X602141D02*
X604734D01*
X605033D02*
X607367D01*
X598089Y83437D02*
X600422D01*
X602039D02*
X604633D01*
X605033D02*
X607367D01*
X598089Y83631D02*
X600422D01*
X601939D02*
X604532D01*
X605033D02*
X607367D01*
X598089Y83826D02*
X600422D01*
X601837D02*
X604431D01*
X605033D02*
X607367D01*
X598089Y84021D02*
X600422D01*
X601736D02*
X604330D01*
X605033D02*
X607367D01*
X598089Y84216D02*
X600422D01*
X601635D02*
X604229D01*
X605033D02*
X607367D01*
X598089Y84411D02*
X600422D01*
X601534D02*
X604128D01*
X605033D02*
X607367D01*
X598089Y84606D02*
X600422D01*
X601433D02*
X604027D01*
X605033D02*
X607367D01*
X598089Y84801D02*
X600422D01*
X601332D02*
X603926D01*
X605033D02*
X607367D01*
X598089Y84996D02*
X600422D01*
X601231D02*
X603824D01*
X605033D02*
X607367D01*
X598089Y85191D02*
X600422D01*
X601130D02*
X603723D01*
X605033D02*
X607367D01*
X598089Y85385D02*
X600422D01*
X601029D02*
X603622D01*
X605033D02*
X607367D01*
X598089Y85580D02*
X600422D01*
X600928D02*
X603521D01*
X605033D02*
X607367D01*
X598089Y85775D02*
X600422D01*
X600826D02*
X603420D01*
X605033D02*
X607367D01*
X598089Y85970D02*
X600422D01*
X600725D02*
X603319D01*
X605033D02*
X607367D01*
X598089Y86165D02*
X600422D01*
X600624D02*
X603218D01*
X605033D02*
X607367D01*
X598089Y86360D02*
X600422D01*
X600523D02*
X603117D01*
X605033D02*
X607367D01*
X598089Y86555D02*
X603016D01*
X605033D02*
X607367D01*
X598089Y86750D02*
X602915D01*
X605033D02*
X607367D01*
X598089Y86944D02*
X602813D01*
X605033D02*
X607367D01*
X598089Y87139D02*
X602713D01*
X605033D02*
X607367D01*
X598089Y87334D02*
X602611D01*
X605033D02*
X607367D01*
X598089Y87529D02*
X602510D01*
X605033D02*
X607367D01*
X598089Y87724D02*
X602409D01*
X605033D02*
X607367D01*
X598089Y87919D02*
X602308D01*
X605033D02*
X607367D01*
X598089Y88114D02*
X602207D01*
X605033D02*
X607367D01*
X598089Y88309D02*
X602106D01*
X605033D02*
X607367D01*
X598089Y88504D02*
X602005D01*
X605033D02*
X607367D01*
X598089Y88698D02*
X601904D01*
X605033D02*
X607367D01*
X598089Y88893D02*
X601803D01*
X605033D02*
X607367D01*
X598089Y89088D02*
X601702D01*
X605033D02*
X607367D01*
X598089Y89283D02*
X601600D01*
X605033D02*
X607367D01*
X598089Y89478D02*
X601499D01*
X605033D02*
X607367D01*
X598089Y89673D02*
X601398D01*
X605033D02*
X607367D01*
X598089Y89868D02*
X601297D01*
X605033D02*
X607367D01*
X598089Y90063D02*
X601196D01*
X605033D02*
X607367D01*
X598089Y90257D02*
X601095D01*
X605033D02*
X607367D01*
X598089Y90452D02*
X600994D01*
X605033D02*
X607367D01*
X598089Y90647D02*
X600893D01*
X605033D02*
X607367D01*
X598089Y90842D02*
X600792D01*
X605033D02*
X607367D01*
X598089Y91037D02*
X600691D01*
X605033D02*
X607367D01*
X598089Y91232D02*
X600589D01*
X605033D02*
X607367D01*
X598089Y91427D02*
X600489D01*
X605033D02*
X607367D01*
X604614Y226600D02*
X585280D01*
X585392Y226531*
X585503Y226462*
X585614Y226392*
X585725Y226323*
X588017Y225003*
X592600Y222365*
X594892Y221045*
X594308Y220712*
X594114Y220600*
X591336Y222198*
X585780Y225392*
X583003Y226989*
X583169Y227087*
X583336Y227184*
X583669Y227378*
X603058*
X602933Y227448*
X602808Y227517*
X602683Y227587*
X602558Y227656*
X600267Y228976*
X597975Y230295*
X595683Y231615*
X593392Y232934*
X593586Y233045*
X593780Y233156*
X593975Y233267*
X594169Y233378*
X596947Y231781*
X599725Y230184*
X602503Y228587*
X605280Y226989*
X604947Y226795*
X604780Y226698*
X604614Y226600*
X605447Y238989D02*
X602906Y237517D01*
X600364Y236045*
X597822Y234573*
X595280Y233100*
X595086Y233212*
X594503Y233545*
X595753Y234267*
X597003Y234989*
X598253Y235712*
X599503Y236434*
X599530Y236448*
X599558Y236462*
X599586Y236476*
X599614Y236489*
X599600Y236517*
X599586Y236545*
X599572Y236573*
X599558Y236600*
X598253Y238865*
X594336Y245656*
Y246434*
X594669Y246239*
X594836Y246142*
X595003Y246045*
X597614Y241517*
X598919Y239253*
X600225Y236989*
X600239Y236962*
X600267Y236906*
X600280Y236878*
X600336Y236906*
X600364Y236920*
X600392Y236934*
X601642Y237656*
X602892Y238378*
X604142Y239100*
X605392Y239823*
Y238989*
X605447*
X608533Y91555D02*
Y77666D01*
X617811*
Y79999*
X610867*
Y83444*
X615478*
Y85721*
X610867*
Y89221*
X617811*
Y91555*
X608533*
Y77718D02*
X617811D01*
X608533Y77913D02*
X617811D01*
X608533Y78108D02*
X617811D01*
X608533Y78303D02*
X617811D01*
X608533Y78498D02*
X617811D01*
X608533Y78693D02*
X617811D01*
X608533Y78887D02*
X617811D01*
X608533Y79082D02*
X617811D01*
X608533Y79277D02*
X617811D01*
X608533Y79472D02*
X617811D01*
X608533Y79667D02*
X617811D01*
X608533Y79862D02*
X617811D01*
X608533Y80057D02*
X610867D01*
X608533Y80252D02*
X610867D01*
X608533Y80446D02*
X610867D01*
X608533Y80641D02*
X610867D01*
X608533Y80836D02*
X610867D01*
X608533Y81031D02*
X610867D01*
X608533Y81226D02*
X610867D01*
X608533Y81421D02*
X610867D01*
X608533Y81616D02*
X610867D01*
X608533Y81811D02*
X610867D01*
X608533Y82006D02*
X610867D01*
X608533Y82200D02*
X610867D01*
X608533Y82395D02*
X610867D01*
X608533Y82590D02*
X610867D01*
X608533Y82785D02*
X610867D01*
X608533Y82980D02*
X610867D01*
X608533Y83175D02*
X610867D01*
X608533Y83370D02*
X610867D01*
X608533Y83565D02*
X615478D01*
X608533Y83759D02*
X615478D01*
X608533Y83954D02*
X615478D01*
X608533Y84149D02*
X615478D01*
X608533Y84344D02*
X615478D01*
X608533Y84539D02*
X615478D01*
X608533Y84734D02*
X615478D01*
X608533Y84929D02*
X615478D01*
X608533Y85124D02*
X615478D01*
X608533Y85319D02*
X615478D01*
X608533Y85513D02*
X615478D01*
X608533Y85708D02*
X615478D01*
X608533Y85903D02*
X610867D01*
X608533Y86098D02*
X610867D01*
X608533Y86293D02*
X610867D01*
X608533Y86488D02*
X610867D01*
X608533Y86683D02*
X610867D01*
X608533Y86878D02*
X610867D01*
X608533Y87072D02*
X610867D01*
X608533Y87267D02*
X610867D01*
X608533Y87462D02*
X610867D01*
X608533Y87657D02*
X610867D01*
X608533Y87852D02*
X610867D01*
X608533Y88047D02*
X610867D01*
X608533Y88242D02*
X610867D01*
X608533Y88437D02*
X610867D01*
X608533Y88631D02*
X610867D01*
X608533Y88826D02*
X610867D01*
X608533Y89021D02*
X610867D01*
X608533Y89216D02*
X610867D01*
X608533Y89411D02*
X617811D01*
X608533Y89606D02*
X617811D01*
X608533Y89801D02*
X617811D01*
X608533Y89996D02*
X617811D01*
X608533Y90191D02*
X617811D01*
X608533Y90385D02*
X617811D01*
X608533Y90580D02*
X617811D01*
X608533Y90775D02*
X617811D01*
X608533Y90970D02*
X617811D01*
X608533Y91165D02*
X617811D01*
X608533Y91360D02*
X617811D01*
X620867Y79055D02*
X622033Y81083D01*
X623200Y83110*
X624367Y85138*
X625533Y87166*
X625547Y87194*
X625561Y87221*
X625589Y87277*
X625561Y87291*
X625533Y87305*
X625506Y87319*
X625478Y87333*
X623172Y88666*
X622019Y89333*
X620867Y89999*
Y90888*
X622117Y90166*
X623367Y89444*
X624617Y88721*
X625867Y87999*
X625894Y87985*
X625922Y87971*
X625950Y87957*
X625978Y87944*
X625991Y87971*
X626006Y87999*
X626019Y88027*
X626033Y88055*
X627339Y90319*
X628644Y92583*
X629950Y94846*
X631256Y97110*
X631589Y97305*
X631756Y97402*
X631922Y97499*
Y96721*
X628006Y89930*
X626700Y87666*
X626686Y87638*
X626672Y87610*
X626658Y87583*
X626644Y87555*
X626672Y87541*
X626700Y87527*
X626728Y87513*
X626756Y87499*
X628006Y86777*
X629256Y86055*
X630506Y85333*
X631756Y84610*
X631172Y84277*
X630978Y84166*
X629825Y84833*
X627519Y86166*
X626367Y86833*
X626339Y86846*
X626311Y86860*
X626283Y86874*
X626256Y86888*
X626241Y86860*
X626228Y86833*
X626214Y86805*
X626200Y86777*
X623867Y82721*
X622700Y80694*
X621533Y78666*
X621367Y78569*
X621200Y78471*
X621033Y78374*
X620867Y78277*
Y79055*
X632139Y98436D02*
Y97563D01*
X631890Y97313*
X631141Y97063*
X625899Y87953*
X620782Y90948*
Y89950*
X625525Y87204*
X620782Y79092*
Y78343*
X621656Y78842*
X626274Y86954*
X641000Y78468*
X621656*
X620907Y78093*
X632139Y71604*
Y70730*
X620033Y77594*
Y91572*
X632139Y98436*
X632081Y70763D02*
X632139D01*
X631737Y70958D02*
X632139D01*
X631394Y71153D02*
X632139D01*
X631050Y71348D02*
X632139D01*
X630706Y71543D02*
X632139D01*
X630363Y71737D02*
X631908D01*
X630019Y71932D02*
X631570D01*
X629675Y72127D02*
X631233D01*
X629331Y72322D02*
X630896D01*
X628988Y72517D02*
X630559D01*
X628644Y72712D02*
X630221D01*
X628300Y72907D02*
X629884D01*
X627957Y73102D02*
X629546D01*
X627613Y73296D02*
X629209D01*
X627269Y73491D02*
X628872D01*
X626926Y73686D02*
X628535D01*
X626582Y73881D02*
X628198D01*
X626238Y74076D02*
X627860D01*
X625894Y74271D02*
X627523D01*
X625551Y74466D02*
X627185D01*
X625207Y74661D02*
X626848D01*
X624863Y74856D02*
X626511D01*
X624520Y75050D02*
X626174D01*
X624176Y75245D02*
X625836D01*
X623832Y75440D02*
X625499D01*
X623489Y75635D02*
X625162D01*
X623145Y75830D02*
X624824D01*
X622801Y76025D02*
X624487D01*
X622457Y76220D02*
X624150D01*
X622114Y76415D02*
X623813D01*
X621770Y76609D02*
X623475D01*
X621426Y76804D02*
X623138D01*
X621083Y76999D02*
X622801D01*
X620739Y77194D02*
X622463D01*
X620395Y77389D02*
X622126D01*
X620052Y77584D02*
X621789D01*
X620033Y77779D02*
X621452D01*
X620033Y77974D02*
X621114D01*
X620033Y78169D02*
X621057D01*
X620033Y78363D02*
X620782D01*
X620818D02*
X621447D01*
X620033Y78558D02*
X620782D01*
X621159D02*
X640843D01*
X620033Y78753D02*
X620782D01*
X621500D02*
X640505D01*
X620033Y78948D02*
X620782D01*
X621716D02*
X640167D01*
X620033Y79143D02*
X620812D01*
X621827D02*
X639829D01*
X620033Y79338D02*
X620926D01*
X621938D02*
X639491D01*
X620033Y79533D02*
X621040D01*
X622049D02*
X639152D01*
X620033Y79728D02*
X621154D01*
X622160D02*
X638814D01*
X620033Y79922D02*
X621268D01*
X622271D02*
X638476D01*
X620033Y80117D02*
X621382D01*
X622382D02*
X638138D01*
X620033Y80312D02*
X621496D01*
X622493D02*
X637800D01*
X620033Y80507D02*
X621610D01*
X622604D02*
X637461D01*
X620033Y80702D02*
X621724D01*
X622715D02*
X637123D01*
X620033Y80897D02*
X621837D01*
X622826D02*
X636785D01*
X620033Y81092D02*
X621952D01*
X622937D02*
X636447D01*
X620033Y81287D02*
X622065D01*
X623047D02*
X636109D01*
X620033Y81481D02*
X622180D01*
X623158D02*
X635770D01*
X620033Y81676D02*
X622293D01*
X623269D02*
X635432D01*
X620033Y81871D02*
X622407D01*
X623380D02*
X635094D01*
X620033Y82066D02*
X622521D01*
X623491D02*
X634756D01*
X620033Y82261D02*
X622635D01*
X623602D02*
X634418D01*
X620033Y82456D02*
X622749D01*
X623713D02*
X634080D01*
X620033Y82651D02*
X622863D01*
X623824D02*
X633742D01*
X620033Y82846D02*
X622977D01*
X623935D02*
X633404D01*
X620033Y83041D02*
X623091D01*
X624046D02*
X633065D01*
X620033Y83235D02*
X623205D01*
X624157D02*
X632727D01*
X620033Y83430D02*
X623319D01*
X624268D02*
X632389D01*
X620033Y83625D02*
X623433D01*
X624379D02*
X632051D01*
X620033Y83820D02*
X623546D01*
X624489D02*
X631713D01*
X620033Y84015D02*
X623661D01*
X624600D02*
X631374D01*
X620033Y84210D02*
X623774D01*
X624711D02*
X631036D01*
X620033Y84405D02*
X623888D01*
X624822D02*
X630698D01*
X620033Y84600D02*
X624002D01*
X624933D02*
X630360D01*
X620033Y84794D02*
X624116D01*
X625044D02*
X630022D01*
X620033Y84989D02*
X624230D01*
X625155D02*
X629683D01*
X620033Y85184D02*
X624344D01*
X625266D02*
X629345D01*
X620033Y85379D02*
X624458D01*
X625377D02*
X629007D01*
X620033Y85574D02*
X624572D01*
X625488D02*
X628669D01*
X620033Y85769D02*
X624686D01*
X625599D02*
X628331D01*
X620033Y85964D02*
X624800D01*
X625710D02*
X627993D01*
X620033Y86159D02*
X624914D01*
X625821D02*
X627654D01*
X620033Y86354D02*
X625028D01*
X625931D02*
X627316D01*
X620033Y86548D02*
X625142D01*
X626043D02*
X626978D01*
X620033Y86743D02*
X625256D01*
X626154D02*
X626640D01*
X620033Y86938D02*
X625369D01*
X626265D02*
X626302D01*
X620033Y87133D02*
X625483D01*
X620033Y87328D02*
X625311D01*
X620033Y87523D02*
X624974D01*
X620033Y87718D02*
X624637D01*
X620033Y87913D02*
X624301D01*
X620033Y88107D02*
X623964D01*
X625635D02*
X625988D01*
X620033Y88302D02*
X623628D01*
X625302D02*
X626100D01*
X620033Y88497D02*
X623291D01*
X624969D02*
X626213D01*
X620033Y88692D02*
X622954D01*
X624636D02*
X626324D01*
X620033Y88887D02*
X622618D01*
X624303D02*
X626437D01*
X620033Y89082D02*
X622281D01*
X623970D02*
X626549D01*
X620033Y89277D02*
X621944D01*
X623637D02*
X626661D01*
X620033Y89472D02*
X621608D01*
X623304D02*
X626773D01*
X620033Y89667D02*
X621271D01*
X622972D02*
X626885D01*
X620033Y89861D02*
X620935D01*
X622639D02*
X626997D01*
X620033Y90056D02*
X620782D01*
X622306D02*
X627109D01*
X620033Y90251D02*
X620782D01*
X621973D02*
X627222D01*
X620033Y90446D02*
X620782D01*
X621640D02*
X627334D01*
X620033Y90641D02*
X620782D01*
X621307D02*
X627446D01*
X620033Y90836D02*
X620782D01*
X620974D02*
X627558D01*
X620033Y91031D02*
X627670D01*
X620033Y91226D02*
X627782D01*
X620033Y91420D02*
X627894D01*
X620110Y91615D02*
X628006D01*
X620454Y91810D02*
X628119D01*
X620797Y92005D02*
X628231D01*
X621141Y92200D02*
X628343D01*
X621485Y92395D02*
X628455D01*
X621828Y92590D02*
X628567D01*
X622172Y92785D02*
X628679D01*
X622516Y92980D02*
X628791D01*
X622859Y93174D02*
X628904D01*
X623203Y93369D02*
X629016D01*
X623547Y93564D02*
X629128D01*
X623891Y93759D02*
X629240D01*
X624234Y93954D02*
X629352D01*
X624578Y94149D02*
X629464D01*
X624922Y94344D02*
X629576D01*
X625265Y94539D02*
X629688D01*
X625609Y94733D02*
X629800D01*
X625953Y94928D02*
X629913D01*
X626296Y95123D02*
X630025D01*
X626640Y95318D02*
X630137D01*
X626984Y95513D02*
X630249D01*
X627328Y95708D02*
X630361D01*
X627671Y95903D02*
X630473D01*
X628015Y96098D02*
X630585D01*
X628359Y96293D02*
X630697D01*
X628702Y96487D02*
X630809D01*
X629046Y96682D02*
X630922D01*
X629390Y96877D02*
X631034D01*
X629733Y97072D02*
X631167D01*
X630077Y97267D02*
X631752D01*
X630421Y97462D02*
X632039D01*
X630765Y97657D02*
X632139D01*
X631108Y97852D02*
X632139D01*
X631452Y98046D02*
X632139D01*
X631796Y98241D02*
X632139D01*
Y98436D02*
X644120Y91572D01*
Y77594*
X632139Y70730*
Y71728*
X632763Y72103*
X623154Y77719*
X642498*
X643247Y78093*
X632139Y84458*
X631266Y83959*
X631016Y84209*
X631765Y84708*
X626648Y87578*
X631890Y96689*
Y97438*
X632139*
Y96814*
X637506Y87703*
X632389Y84583*
X633263Y84084*
X643372Y90074*
Y90948*
X638255Y87953*
X632888Y97063*
X632139Y97563*
Y98436*
Y70763D02*
X632197D01*
X632139Y70958D02*
X632537D01*
X632139Y71153D02*
X632878D01*
X632139Y71348D02*
X633218D01*
X632139Y71543D02*
X633558D01*
X632154Y71737D02*
X633898D01*
X632479Y71932D02*
X634238D01*
X632722Y72127D02*
X634578D01*
X632388Y72322D02*
X634919D01*
X632055Y72517D02*
X635259D01*
X631721Y72712D02*
X635599D01*
X631388Y72907D02*
X635939D01*
X631054Y73102D02*
X636279D01*
X630721Y73296D02*
X636619D01*
X630387Y73491D02*
X636959D01*
X630054Y73686D02*
X637300D01*
X629720Y73881D02*
X637640D01*
X629387Y74076D02*
X637980D01*
X629054Y74271D02*
X638320D01*
X628720Y74466D02*
X638660D01*
X628387Y74661D02*
X639000D01*
X628053Y74856D02*
X639341D01*
X627720Y75050D02*
X639681D01*
X627386Y75245D02*
X640021D01*
X627053Y75440D02*
X640361D01*
X626719Y75635D02*
X640701D01*
X626386Y75830D02*
X641041D01*
X626052Y76025D02*
X641381D01*
X625719Y76220D02*
X641722D01*
X625385Y76415D02*
X642062D01*
X625052Y76609D02*
X642402D01*
X624719Y76804D02*
X642742D01*
X624385Y76999D02*
X643082D01*
X624052Y77194D02*
X643422D01*
X623718Y77389D02*
X643763D01*
X623385Y77584D02*
X644103D01*
X642618Y77779D02*
X644120D01*
X643007Y77974D02*
X644120D01*
X643116Y78169D02*
X644120D01*
X642776Y78363D02*
X644120D01*
X642435Y78558D02*
X644120D01*
X642095Y78753D02*
X644120D01*
X641755Y78948D02*
X644120D01*
X641415Y79143D02*
X644120D01*
X641075Y79338D02*
X644120D01*
X640735Y79533D02*
X644120D01*
X640395Y79728D02*
X644120D01*
X640055Y79922D02*
X644120D01*
X639715Y80117D02*
X644120D01*
X639375Y80312D02*
X644120D01*
X639035Y80507D02*
X644120D01*
X638694Y80702D02*
X644120D01*
X638354Y80897D02*
X644120D01*
X638014Y81092D02*
X644120D01*
X637674Y81287D02*
X644120D01*
X637334Y81481D02*
X644120D01*
X636994Y81676D02*
X644120D01*
X636654Y81871D02*
X644120D01*
X636314Y82066D02*
X644120D01*
X635974Y82261D02*
X644120D01*
X635634Y82456D02*
X644120D01*
X635294Y82651D02*
X644120D01*
X634954Y82846D02*
X644120D01*
X634613Y83041D02*
X644120D01*
X634273Y83235D02*
X644120D01*
X633933Y83430D02*
X644120D01*
X633593Y83625D02*
X644120D01*
X633253Y83820D02*
X644120D01*
X631210Y84015D02*
X631363D01*
X632913D02*
X644120D01*
X631018Y84210D02*
X631705D01*
X632573D02*
X633042D01*
X633475D02*
X644120D01*
X631310Y84405D02*
X632046D01*
X632233D02*
X632701D01*
X633804D02*
X644120D01*
X631603Y84600D02*
X632416D01*
X634133D02*
X644120D01*
X631611Y84794D02*
X632736D01*
X634462D02*
X644120D01*
X631263Y84989D02*
X633055D01*
X634791D02*
X644120D01*
X630916Y85184D02*
X633375D01*
X635120D02*
X644120D01*
X630569Y85379D02*
X633694D01*
X635448D02*
X644120D01*
X630221Y85574D02*
X634014D01*
X635777D02*
X644120D01*
X629874Y85769D02*
X634334D01*
X636106D02*
X644120D01*
X629526Y85964D02*
X634653D01*
X636435D02*
X644120D01*
X629179Y86159D02*
X634973D01*
X636764D02*
X644120D01*
X628831Y86354D02*
X635293D01*
X637093D02*
X644120D01*
X628484Y86548D02*
X635612D01*
X637422D02*
X644120D01*
X628137Y86743D02*
X635932D01*
X637750D02*
X644120D01*
X627789Y86938D02*
X636251D01*
X638079D02*
X644120D01*
X627442Y87133D02*
X636571D01*
X638408D02*
X644120D01*
X627094Y87328D02*
X636891D01*
X638737D02*
X644120D01*
X626747Y87523D02*
X637210D01*
X639066D02*
X644120D01*
X626728Y87718D02*
X637497D01*
X639395D02*
X644120D01*
X626840Y87913D02*
X637383D01*
X639724D02*
X644120D01*
X626952Y88107D02*
X637268D01*
X638164D02*
X638519D01*
X640052D02*
X644120D01*
X627065Y88302D02*
X637153D01*
X638049D02*
X638852D01*
X640381D02*
X644120D01*
X627177Y88497D02*
X637038D01*
X637934D02*
X639185D01*
X640710D02*
X644120D01*
X627289Y88692D02*
X636923D01*
X637819D02*
X639518D01*
X641039D02*
X644120D01*
X627401Y88887D02*
X636809D01*
X637704D02*
X639851D01*
X641368D02*
X644120D01*
X627513Y89082D02*
X636694D01*
X637590D02*
X640183D01*
X641697D02*
X644120D01*
X627625Y89277D02*
X636579D01*
X637475D02*
X640517D01*
X642026D02*
X644120D01*
X627737Y89472D02*
X636464D01*
X637360D02*
X640850D01*
X642354D02*
X644120D01*
X627850Y89667D02*
X636349D01*
X637245D02*
X641182D01*
X642683D02*
X644120D01*
X627961Y89861D02*
X636235D01*
X637130D02*
X641515D01*
X643012D02*
X644120D01*
X628074Y90056D02*
X636120D01*
X637016D02*
X641848D01*
X643341D02*
X644120D01*
X628186Y90251D02*
X636005D01*
X636901D02*
X642181D01*
X643372D02*
X644120D01*
X628298Y90446D02*
X635890D01*
X636786D02*
X642514D01*
X643372D02*
X644120D01*
X628410Y90641D02*
X635776D01*
X636671D02*
X642847D01*
X643372D02*
X644120D01*
X628522Y90836D02*
X635661D01*
X636556D02*
X643180D01*
X643372D02*
X644120D01*
X628634Y91031D02*
X635546D01*
X636442D02*
X644120D01*
X628746Y91226D02*
X635431D01*
X636327D02*
X644120D01*
X628859Y91420D02*
X635316D01*
X636212D02*
X644120D01*
X628971Y91615D02*
X635202D01*
X636097D02*
X644045D01*
X629083Y91810D02*
X635087D01*
X635983D02*
X643705D01*
X629195Y92005D02*
X634972D01*
X635868D02*
X643365D01*
X629307Y92200D02*
X634857D01*
X635753D02*
X643024D01*
X629419Y92395D02*
X634742D01*
X635638D02*
X642684D01*
X629531Y92590D02*
X634628D01*
X635523D02*
X642344D01*
X629643Y92785D02*
X634513D01*
X635409D02*
X642004D01*
X629756Y92980D02*
X634398D01*
X635294D02*
X641664D01*
X629868Y93174D02*
X634283D01*
X635179D02*
X641324D01*
X629980Y93369D02*
X634169D01*
X635064D02*
X640983D01*
X630092Y93564D02*
X634054D01*
X634949D02*
X640643D01*
X630204Y93759D02*
X633939D01*
X634835D02*
X640303D01*
X630316Y93954D02*
X633824D01*
X634720D02*
X639963D01*
X630428Y94149D02*
X633709D01*
X634605D02*
X639623D01*
X630541Y94344D02*
X633594D01*
X634490D02*
X639283D01*
X630652Y94539D02*
X633480D01*
X634376D02*
X638943D01*
X630765Y94733D02*
X633365D01*
X634261D02*
X638602D01*
X630877Y94928D02*
X633250D01*
X634146D02*
X638262D01*
X630989Y95123D02*
X633135D01*
X634031D02*
X637922D01*
X631101Y95318D02*
X633020D01*
X633916D02*
X637582D01*
X631213Y95513D02*
X632906D01*
X633802D02*
X637242D01*
X631325Y95708D02*
X632791D01*
X633687D02*
X636902D01*
X631437Y95903D02*
X632676D01*
X633572D02*
X636561D01*
X631550Y96098D02*
X632561D01*
X633457D02*
X636221D01*
X631662Y96293D02*
X632446D01*
X633342D02*
X635881D01*
X631774Y96487D02*
X632331D01*
X633228D02*
X635541D01*
X631886Y96682D02*
X632217D01*
X633113D02*
X635201D01*
X631890Y96877D02*
X632139D01*
X632998D02*
X634861D01*
X631890Y97072D02*
X632139D01*
X632875D02*
X634520D01*
X631890Y97267D02*
X632139D01*
X632583D02*
X634180D01*
X632291Y97462D02*
X633840D01*
X632139Y97657D02*
X633500D01*
X632139Y97852D02*
X633160D01*
X632139Y98046D02*
X632820D01*
X632139Y98241D02*
X632480D01*
X642533Y77666D02*
X623200D01*
X623311Y77596*
X623422Y77527*
X623533Y77457*
X623644Y77388*
X625936Y76069*
X630519Y73430*
X632811Y72110*
X632228Y71777*
X632033Y71666*
X629256Y73263*
X623700Y76457*
X620922Y78055*
X621089Y78152*
X621256Y78249*
X621589Y78444*
X640978*
X640852Y78513*
X640728Y78583*
X640602Y78652*
X640478Y78721*
X638186Y80041*
X635894Y81360*
X633602Y82680*
X631311Y83999*
X631506Y84110*
X631700Y84221*
X631894Y84333*
X632089Y84444*
X634867Y82846*
X637644Y81249*
X640422Y79652*
X643200Y78055*
X642867Y77860*
X642700Y77763*
X642533Y77666*
X643367Y90055D02*
X640825Y88583D01*
X638283Y87110*
X635741Y85638*
X633200Y84166*
X633006Y84277*
X632422Y84610*
X633672Y85333*
X634922Y86055*
X636172Y86777*
X637422Y87499*
X637450Y87513*
X637478Y87527*
X637506Y87541*
X637533Y87555*
X637519Y87583*
X637506Y87610*
X637491Y87638*
X637478Y87666*
X636172Y89930*
X632256Y96721*
Y97499*
X632589Y97305*
X632756Y97207*
X632922Y97110*
X635533Y92583*
X636839Y90319*
X638144Y88055*
X638158Y88027*
X638186Y87971*
X638200Y87944*
X638256Y87971*
X638283Y87985*
X638311Y87999*
X639561Y88721*
X640811Y89444*
X642061Y90166*
X643311Y90888*
Y90055*
X643367*
X645422Y90944D02*
X646256D01*
X646379Y90934*
X646491Y90909*
X646583Y90873*
X646644Y90833*
X646708Y90780*
X646741Y90707*
X646754Y90614*
X646755Y90499*
X646746Y90424*
X646720Y90360*
X646685Y90296*
X646644Y90222*
X646592Y90180*
X646519Y90138*
X646426Y90096*
X646311Y90055*
X646352Y90046*
X646387Y90027*
X646413Y90008*
X646422Y89999*
X646455Y89957*
X646478Y89916*
X646500Y89874*
X646533Y89833*
X646552Y89802*
X646602Y89715*
X646674Y89575*
X646755Y89388*
X646311*
X646205Y89576*
X646130Y89722*
X646076Y89826*
X646033Y89888*
X645991Y89929*
X645950Y89965*
X645908Y89990*
X645867Y89999*
X645811*
Y89388*
X645422*
Y90944*
Y89580D02*
X645811D01*
X646203D02*
X646671D01*
X645422Y89774D02*
X645811D01*
X646103D02*
X646568D01*
X645422Y89969D02*
X645811D01*
X645942D02*
X646446D01*
X645422Y90164D02*
X646565D01*
X645422Y90359D02*
X646720D01*
X645422Y90554D02*
X646754D01*
X645422Y90749D02*
X646722D01*
X647644Y90166D02*
X647634Y89967D01*
X647602Y89784*
X647550Y89611*
X647478Y89444*
X647384Y89287*
X647269Y89152*
X647134Y89037*
X646978Y88944*
X646810Y88871*
X646637Y88819*
X646454Y88787*
X646256Y88777*
X646057Y88787*
X645873Y88819*
X645701Y88871*
X645533Y88944*
X645377Y89037*
X645241Y89152*
X645127Y89287*
X645033Y89444*
X644960Y89611*
X644908Y89784*
X644877Y89967*
X644867Y90166*
X644877Y90365*
X644908Y90548*
X644960Y90720*
X645033Y90888*
X645127Y91044*
X645241Y91180*
X645377Y91294*
X645533Y91388*
X645701Y91461*
X645873Y91513*
X646057Y91544*
X646256Y91555*
X646454Y91544*
X646637Y91513*
X646810Y91461*
X646978Y91388*
X647134Y91294*
X647269Y91180*
X647384Y91044*
X647478Y90888*
X647550Y90720*
X647602Y90548*
X647634Y90365*
X647644Y90166*
X0Y0D02*
M02*
