G04 EasyPC Gerber Version 21.0.3 Build 4286 *
G04 #@! TF.Part,Single*
G04 #@! TF.FileFunction,Paste,Top *
G04 #@! TF.FilePolarity,Positive *
%FSLAX35Y35*%
%MOIN*%
G04 #@! TA.AperFunction,SMDPad*
%ADD87R,0.01959X0.02746*%
%ADD88R,0.04124X0.04518*%
%ADD86R,0.04900X0.05400*%
X0Y0D02*
D02*
D86*
X91982Y191222D03*
Y200222D03*
X107337Y191222D03*
Y200222D03*
X150250Y332167D03*
Y341167D03*
X151431Y128230D03*
Y137230D03*
X165998Y332167D03*
Y341167D03*
X167179Y128230D03*
Y137230D03*
X209699Y191222D03*
Y200222D03*
X225447Y191222D03*
Y200222D03*
X279384Y163663D03*
Y172663D03*
X295132Y163663D03*
Y172663D03*
X305368Y266813D03*
Y275813D03*
Y287285D03*
Y296285D03*
X460486Y163663D03*
Y172663D03*
X476234Y163663D03*
Y172663D03*
X528596Y190435D03*
Y199435D03*
X544344Y190435D03*
Y199435D03*
X587652Y132167D03*
Y141167D03*
Y332955D03*
Y341955D03*
X603400Y132167D03*
Y141167D03*
Y332955D03*
Y341955D03*
X647888Y189648D03*
Y198648D03*
X661274Y189648D03*
Y198648D03*
D02*
D87*
X360309Y208616D03*
Y230073D03*
X365309Y208616D03*
Y230073D03*
X370309Y208616D03*
Y230073D03*
X375309Y208616D03*
Y230073D03*
X380309Y208616D03*
Y230073D03*
X385309Y208616D03*
Y230073D03*
X390309Y208616D03*
Y230073D03*
X395309Y208616D03*
Y230073D03*
D02*
D88*
X317967Y270329D03*
Y286470D03*
X330565Y270329D03*
Y286470D03*
X352612Y270329D03*
Y286470D03*
X365211Y270329D03*
Y286470D03*
X387258Y270329D03*
Y286470D03*
X399856Y270329D03*
Y286470D03*
X421904Y270329D03*
Y286470D03*
X434502Y270329D03*
Y286470D03*
X0Y0D02*
M02*
